<?xml version="1.0" encoding="utf-8"?>
<svg id="svg2" width="1000" height="1000" viewBox="96 354 229 296" xmlns="http://www.w3.org/2000/svg">
  <defs id="defs6">
    <radialGradient id="radialGradient100" spreadMethod="pad" gradientTransform="matrix(5650.08,0,0,-5650.08,4000,4000)" gradientUnits="userSpaceOnUse" r="1" cy="0" cx="0">
      <stop id="stop102" offset="0" style="stop-opacity:1;stop-color:#dcdbd5"/>
      <stop id="stop104" offset="1" style="stop-opacity:1;stop-color:#a6a59f"/>
    </radialGradient>
  </defs>
  <g transform="matrix(1.25,0,0,-1.25,0,1000)" id="g10">
    <g transform="scale(0.1,0.1)" id="g12">
      <g id="g14">
        <g id="g16" style="clip-path: url(#clipPath18);"/>
      </g>
      <path id="path30" style="fill:#201d1c;fill-opacity:1;fill-rule:nonzero;stroke:none" d="m 2779.36,289.48 c 0,-7.371 1.16,-13.621 3.43,-18.789 2.3,-5.179 5.42,-9.082 9.41,-11.66 3.98,-2.66 8.32,-3.949 13.02,-3.949 4.77,0 9.13,1.227 13.07,3.727 3.95,2.48 7.09,6.293 9.43,11.429 2.37,5.133 3.56,11.563 3.56,19.242 0,7.219 -1.19,13.43 -3.56,18.649 -2.34,5.191 -5.5,9.16 -9.53,11.93 -4.02,2.761 -8.4,4.121 -13.17,4.121 -4.97,0 -9.41,-1.418 -13.32,-4.231 -3.92,-2.797 -6.94,-6.84 -9.09,-12.109 -2.17,-5.301 -3.25,-11.41 -3.25,-18.36 z m 53.4,-39.89 0,2.699 c -3.65,-4.16 -7.24,-7.578 -10.8,-10.18 -3.53,-2.629 -7.38,-4.629 -11.52,-5.968 -4.14,-1.371 -8.65,-2.051 -13.58,-2.051 -6.49,0 -12.51,1.379 -18.04,4.14 -5.53,2.731 -10.31,6.68 -14.36,11.77 -4.05,5.121 -7.12,11.102 -9.2,17.992 -2.09,6.899 -3.13,14.36 -3.13,22.367 0,16.969 4.15,30.211 12.43,39.68 8.28,9.481 19.19,14.203 32.71,14.203 7.81,0 14.42,-1.351 19.77,-4.004 5.37,-2.699 10.61,-6.816 15.72,-12.379 l 0,40.071 c 0,5.55 1.1,9.769 3.34,12.621 2.21,2.851 5.37,4.258 9.48,4.258 4.12,0 7.28,-1.309 9.51,-3.93 2.2,-2.609 3.32,-6.438 3.32,-11.559 l 0,-119.73 c 0,-5.149 -1.19,-9.039 -3.58,-11.621 -2.38,-2.578 -5.47,-3.879 -9.25,-3.879 -3.69,0 -6.76,1.34 -9.2,4.039 -2.41,2.691 -3.62,6.523 -3.62,11.461"/>
      <path id="path32" style="fill:#201d1c;fill-opacity:1;fill-rule:nonzero;stroke:none" d="m 2899.36,298.012 49.22,0 c -0.66,9.297 -3.18,16.25 -7.52,20.84 -4.33,4.609 -10.04,6.918 -17.14,6.918 -6.76,0 -12.33,-2.329 -16.66,-7.02 -4.34,-4.641 -6.96,-11.578 -7.9,-20.738 z m 53.09,-15.41 -53.09,0 c 0.06,-6.153 1.29,-11.582 3.74,-16.293 2.4,-4.719 5.62,-8.258 9.62,-10.637 4.03,-2.402 8.44,-3.563 13.29,-3.563 3.24,0 6.21,0.352 8.9,1.121 2.68,0.782 5.28,1.95 7.81,3.571 2.5,1.621 4.83,3.379 6.94,5.23 2.13,1.879 4.88,4.379 8.26,7.578 1.39,1.192 3.38,1.782 5.98,1.782 2.77,0 5.02,-0.782 6.73,-2.282 1.72,-1.55 2.6,-3.699 2.6,-6.468 0,-2.461 -0.96,-5.313 -2.87,-8.61 -1.95,-3.261 -4.84,-6.429 -8.71,-9.461 -3.89,-2.98 -8.75,-5.48 -14.63,-7.5 -5.86,-1.968 -12.6,-2.98 -20.21,-2.98 -17.45,0 -31,5 -40.67,14.941 -9.69,9.918 -14.51,23.418 -14.51,40.449 0,8.02 1.17,15.469 3.57,22.321 2.41,6.859 5.88,12.73 10.44,17.66 4.56,4.879 10.21,8.648 16.91,11.269 6.68,2.61 14.12,3.899 22.26,3.899 10.61,0 19.71,-2.207 27.29,-6.699 7.6,-4.45 13.28,-10.231 17.05,-17.321 3.77,-7.109 5.66,-14.339 5.66,-21.679 0,-6.84 -1.95,-11.25 -5.84,-13.301 -3.9,-2.008 -9.43,-3.027 -16.52,-3.027"/>
      <path id="path34" style="fill:#201d1c;fill-opacity:1;fill-rule:nonzero;stroke:none" d="m 3076.12,269.609 c 0,-7.519 -1.81,-13.918 -5.47,-19.25 -3.63,-5.339 -9.02,-9.398 -16.15,-12.129 -7.13,-2.761 -15.8,-4.14 -25.99,-4.14 -9.75,0 -18.11,1.5 -25.06,4.488 -6.98,2.992 -12.09,6.723 -15.41,11.172 -3.3,4.492 -4.96,8.961 -4.96,13.48 0,2.981 1.03,5.54 3.18,7.649 2.11,2.113 4.8,3.191 8.05,3.191 2.85,0 5.02,-0.711 6.56,-2.09 1.52,-1.41 2.97,-3.359 4.37,-5.859 2.78,-4.851 6.12,-8.461 9.98,-10.84 3.89,-2.39 9.16,-3.582 15.88,-3.582 5.43,0 9.89,1.211 13.36,3.621 3.48,2.442 5.22,5.192 5.22,8.321 0,4.761 -1.8,8.238 -5.41,10.429 -3.62,2.18 -9.57,4.27 -17.85,6.27 -9.34,2.32 -16.96,4.742 -22.82,7.301 -5.88,2.539 -10.56,5.918 -14.06,10.078 -3.52,4.203 -5.29,9.332 -5.29,15.41 0,5.449 1.62,10.582 4.88,15.43 3.24,4.82 8.05,8.691 14.38,11.562 6.32,2.91 13.96,4.359 22.91,4.359 7.03,0 13.34,-0.75 18.92,-2.21 5.61,-1.45 10.29,-3.418 14.02,-5.879 3.75,-2.442 6.61,-5.161 8.56,-8.141 1.95,-2.969 2.93,-5.898 2.93,-8.75 0,-3.109 -1.06,-5.668 -3.13,-7.66 -2.09,-1.969 -5.03,-2.969 -8.9,-2.969 -2.78,0 -5.16,0.781 -7.09,2.379 -1.96,1.59 -4.2,3.969 -6.74,7.152 -2.03,2.657 -4.45,4.789 -7.25,6.368 -2.77,1.601 -6.56,2.382 -11.32,2.382 -4.91,0 -8.97,-1.031 -12.23,-3.14 -3.24,-2.051 -4.88,-4.672 -4.88,-7.801 0,-2.852 1.21,-5.191 3.57,-7.012 2.4,-1.808 5.61,-3.34 9.67,-4.508 4.02,-1.191 9.59,-2.64 16.7,-4.371 8.42,-2.07 15.27,-4.519 20.62,-7.371 5.33,-2.828 9.38,-6.207 12.13,-10.09 2.76,-3.871 4.12,-8.289 4.12,-13.25"/>
      <path id="path36" style="fill:#201d1c;fill-opacity:1;fill-rule:nonzero;stroke:none" d="m 3117.27,329.051 0,-78.442 c 0,-5.429 -1.28,-9.57 -3.86,-12.339 -2.6,-2.778 -5.86,-4.18 -9.85,-4.18 -4,0 -7.22,1.422 -9.7,4.269 -2.48,2.871 -3.73,6.942 -3.73,12.25 l 0,77.641 c 0,5.371 1.25,9.41 3.73,12.141 2.48,2.699 5.7,4.089 9.7,4.089 3.99,0 7.25,-1.39 9.85,-4.089 2.58,-2.731 3.86,-6.5 3.86,-11.34 z m -13.41,28.019 c -3.77,0 -7.01,1.18 -9.69,3.481 -2.7,2.32 -4.04,5.609 -4.04,9.859 0,3.852 1.38,7 4.12,9.5 2.77,2.5 5.95,3.731 9.61,3.731 3.51,0 6.62,-1.141 9.33,-3.379 2.72,-2.27 4.08,-5.551 4.08,-9.852 0,-4.18 -1.32,-7.461 -3.98,-9.801 -2.64,-2.339 -5.78,-3.539 -9.43,-3.539"/>
      <path id="path38" style="fill:#201d1c;fill-opacity:1;fill-rule:nonzero;stroke:none" d="m 3157.53,290.16 c 0,-10.98 2.4,-19.32 7.21,-24.941 4.8,-5.649 11.03,-8.457 18.65,-8.457 4.49,0 8.75,1.207 12.75,3.629 4.03,2.429 7.29,6.078 9.81,10.941 2.52,4.867 3.79,10.777 3.79,17.738 0,11.071 -2.45,19.68 -7.31,25.84 -4.88,6.192 -11.29,9.27 -19.26,9.27 -7.75,0 -13.96,-2.969 -18.63,-8.86 -4.69,-5.879 -7.01,-14.281 -7.01,-25.16 z m 78.65,34.41 0,-78.84 c 0,-9.031 -0.98,-16.761 -2.91,-23.269 -1.89,-6.5 -4.98,-11.852 -9.24,-16.109 -4.22,-4.243 -9.78,-7.383 -16.64,-9.43 -6.85,-2.051 -15.39,-3.09 -25.6,-3.09 -9.34,0 -17.7,1.309 -25.06,3.93 -7.35,2.609 -13.01,6.008 -16.99,10.148 -3.99,4.141 -5.98,8.399 -5.98,12.781 0,3.297 1.13,6.008 3.38,8.079 2.24,2.089 4.98,3.128 8.16,3.128 3.97,0 7.46,-1.757 10.45,-5.257 1.45,-1.789 2.95,-3.61 4.51,-5.43 1.57,-1.813 3.28,-3.371 5.18,-4.66 1.87,-1.27 4.16,-2.25 6.8,-2.891 2.65,-0.609 5.72,-0.922 9.16,-0.922 7.03,0 12.48,0.961 16.34,2.91 3.89,1.973 6.61,4.711 8.17,8.223 1.54,3.481 2.46,7.27 2.73,11.27 0.28,4.019 0.45,10.468 0.59,19.359 -4.18,-5.859 -8.99,-10.301 -14.47,-13.34 -5.45,-3.051 -11.98,-4.57 -19.52,-4.57 -9.1,0 -17.03,2.301 -23.82,6.949 -6.8,4.652 -12.04,11.152 -15.67,19.492 -3.63,8.36 -5.45,17.989 -5.45,28.93 0,8.16 1.1,15.519 3.32,22.07 2.23,6.578 5.39,12.11 9.49,16.598 4.11,4.531 8.85,7.91 14.22,10.211 5.37,2.269 11.25,3.402 17.7,3.402 7.69,0 14.35,-1.461 19.98,-4.39 5.64,-2.973 10.88,-7.602 15.72,-13.891 l 0,3.691 c 0,4.688 1.13,8.34 3.48,10.938 2.32,2.582 5.29,3.89 8.94,3.89 5.24,0 8.71,-1.742 10.43,-5.14 1.72,-3.418 2.6,-8.34 2.6,-14.77"/>
      <path id="path40" style="fill:#201d1c;fill-opacity:1;fill-rule:nonzero;stroke:none" d="m 3279.33,329.461 0,-3.301 c 4.76,6.289 9.98,10.91 15.64,13.86 5.68,2.972 12.19,4.46 19.53,4.46 7.17,0 13.56,-1.589 19.2,-4.71 5.63,-3.11 9.84,-7.52 12.62,-13.2 1.79,-3.3 2.95,-6.918 3.47,-10.73 0.53,-3.86 0.82,-8.77 0.82,-14.719 l 0,-50.512 c 0,-5.429 -1.25,-9.57 -3.75,-12.339 -2.48,-2.778 -5.7,-4.18 -9.68,-4.18 -4.05,0 -7.33,1.422 -9.85,4.269 -2.52,2.871 -3.77,6.942 -3.77,12.25 l 0,45.231 c 0,8.949 -1.25,15.801 -3.75,20.531 -2.48,4.75 -7.42,7.109 -14.84,7.109 -4.84,0 -9.26,-1.429 -13.22,-4.32 -3.99,-2.91 -6.92,-6.851 -8.75,-11.89 -1.33,-4.04 -1.99,-11.598 -1.99,-22.661 l 0,-34 c 0,-5.507 -1.29,-9.648 -3.83,-12.379 -2.56,-2.761 -5.86,-4.14 -9.89,-4.14 -3.92,0 -7.12,1.422 -9.64,4.269 -2.52,2.871 -3.79,6.942 -3.79,12.25 l 0,78.442 c 0,5.168 1.13,9.019 3.38,11.578 2.24,2.562 5.33,3.851 9.23,3.851 2.41,0 4.55,-0.589 6.49,-1.718 1.91,-1.141 3.46,-2.813 4.63,-5.063 1.15,-2.269 1.74,-5 1.74,-8.238"/>
      <path id="path42" style="fill:#201d1c;fill-opacity:1;fill-rule:nonzero;stroke:none" d="m 3391.36,298.012 49.22,0 c -0.67,9.297 -3.17,16.25 -7.5,20.84 -4.36,4.609 -10.06,6.918 -17.17,6.918 -6.76,0 -12.33,-2.329 -16.66,-7.02 -4.34,-4.641 -6.98,-11.578 -7.89,-20.738 z m 53.08,-15.41 -53.08,0 c 0.06,-6.153 1.31,-11.582 3.73,-16.293 2.42,-4.719 5.62,-8.258 9.65,-10.637 3.98,-2.402 8.41,-3.563 13.26,-3.563 3.24,0 6.21,0.352 8.9,1.121 2.68,0.782 5.28,1.95 7.8,3.571 2.52,1.621 4.82,3.379 6.97,5.23 2.11,1.879 4.86,4.379 8.24,7.578 1.39,1.192 3.38,1.782 5.98,1.782 2.77,0 5.02,-0.782 6.76,-2.282 1.71,-1.55 2.57,-3.699 2.57,-6.468 0,-2.461 -0.95,-5.313 -2.87,-8.61 -1.93,-3.261 -4.84,-6.429 -8.71,-9.461 -3.88,-2.98 -8.75,-5.48 -14.61,-7.5 -5.88,-1.968 -12.61,-2.98 -20.23,-2.98 -17.44,0 -31,5 -40.69,14.941 -9.64,9.918 -14.49,23.418 -14.49,40.449 0,8.02 1.17,15.469 3.58,22.321 2.38,6.859 5.86,12.73 10.45,17.66 4.55,4.879 10.19,8.648 16.87,11.269 6.7,2.61 14.14,3.899 22.29,3.899 10.6,0 19.68,-2.207 27.28,-6.699 7.6,-4.45 13.28,-10.231 17.05,-17.321 3.77,-7.109 5.69,-14.339 5.69,-21.679 0,-6.84 -1.98,-11.25 -5.88,-13.301 -3.89,-2.008 -9.42,-3.027 -16.51,-3.027"/>
      <path id="path44" style="fill:#201d1c;fill-opacity:1;fill-rule:nonzero;stroke:none" d="m 3501.71,289.48 c 0,-7.371 1.13,-13.621 3.42,-18.789 2.28,-5.179 5.41,-9.082 9.39,-11.66 3.99,-2.66 8.32,-3.949 13.03,-3.949 4.78,0 9.14,1.227 13.06,3.727 3.95,2.48 7.11,6.293 9.46,11.429 2.36,5.133 3.51,11.563 3.51,19.242 0,7.219 -1.15,13.43 -3.51,18.649 -2.35,5.191 -5.53,9.16 -9.53,11.93 -4.05,2.761 -8.42,4.121 -13.21,4.121 -4.96,0 -9.39,-1.418 -13.3,-4.231 -3.9,-2.797 -6.95,-6.84 -9.1,-12.109 -2.17,-5.301 -3.22,-11.41 -3.22,-18.36 z m 53.38,-39.89 0,2.699 c -3.63,-4.16 -7.25,-7.578 -10.8,-10.18 -3.54,-2.629 -7.39,-4.629 -11.53,-5.968 -4.14,-1.371 -8.65,-2.051 -13.55,-2.051 -6.5,0 -12.52,1.379 -18.07,4.14 -5.53,2.731 -10.31,6.68 -14.35,11.77 -4.05,5.121 -7.11,11.102 -9.2,17.992 -2.09,6.899 -3.13,14.36 -3.13,22.367 0,16.969 4.14,30.211 12.43,39.68 8.28,9.481 19.19,14.203 32.71,14.203 7.83,0 14.41,-1.351 19.79,-4.004 5.37,-2.699 10.6,-6.816 15.7,-12.379 l 0,40.071 c 0,5.55 1.11,9.769 3.32,12.621 2.23,2.851 5.41,4.258 9.51,4.258 4.1,0 7.27,-1.309 9.49,-3.93 2.21,-2.609 3.34,-6.438 3.34,-11.559 l 0,-119.73 c 0,-5.149 -1.19,-9.039 -3.59,-11.621 -2.38,-2.578 -5.45,-3.879 -9.24,-3.879 -3.71,0 -6.78,1.34 -9.2,4.039 -2.42,2.691 -3.63,6.523 -3.63,11.461"/>
      <path id="path46" style="fill:#201d1c;fill-opacity:1;fill-rule:nonzero;stroke:none" d="m 3667.31,288.672 c 0,-10.801 2.47,-19.102 7.43,-24.902 4.92,-5.801 11.4,-8.688 19.43,-8.688 6.82,0 12.69,2.949 17.64,8.887 4.94,5.953 7.4,14.433 7.4,25.511 0,7.161 -1.02,13.34 -3.09,18.489 -2.05,5.16 -4.96,9.183 -8.73,11.98 -3.79,2.813 -8.2,4.231 -13.22,4.231 -5.18,0 -9.78,-1.418 -13.83,-4.231 -4.04,-2.797 -7.23,-6.879 -9.55,-12.23 -2.32,-5.309 -3.48,-11.68 -3.48,-19.047 z m -1.28,80.648 0,-41.461 c 5.09,5.289 10.29,9.371 15.6,12.161 5.31,2.839 11.88,4.222 19.69,4.222 9.02,0 16.91,-2.113 23.73,-6.383 6.78,-4.3 12.03,-10.488 15.8,-18.597 3.75,-8.121 5.62,-17.75 5.62,-28.903 0,-8.23 -1.05,-15.75 -3.14,-22.597 -2.09,-6.86 -5.12,-12.813 -9.1,-17.852 -3.97,-5.039 -8.79,-8.949 -14.45,-11.68 -5.69,-2.761 -11.94,-4.14 -18.75,-4.14 -4.18,0 -8.11,0.5 -11.78,1.5 -3.69,1 -6.82,2.281 -9.42,3.93 -2.57,1.621 -4.78,3.281 -6.6,5.011 -1.81,1.719 -4.24,4.321 -7.2,7.758 l 0,-2.699 c 0,-5.09 -1.24,-8.961 -3.7,-11.559 -2.42,-2.64 -5.56,-3.941 -9.33,-3.941 -3.85,0 -6.92,1.301 -9.2,3.941 -2.29,2.598 -3.42,6.469 -3.42,11.559 l 0,118.539 c 0,5.492 1.11,9.672 3.3,12.461 2.25,2.832 5.35,4.219 9.32,4.219 4.18,0 7.4,-1.329 9.65,-4.008 2.24,-2.692 3.38,-6.5 3.38,-11.481"/>
      <path id="path48" style="fill:#201d1c;fill-opacity:1;fill-rule:nonzero;stroke:none" d="m 3781.65,230.711 2.48,6.09 -33.4,84.101 c -2.05,4.828 -3.1,8.34 -3.1,10.528 0,2.34 0.62,4.472 1.81,6.461 1.2,2 2.82,3.578 4.91,4.769 2.11,1.211 4.27,1.82 6.52,1.82 3.91,0 6.85,-1.269 8.85,-3.75 2.01,-2.48 3.75,-6.039 5.27,-10.691 l 22.97,-66.809 21.76,62.141 c 1.72,5.02 3.28,8.969 4.68,11.82 1.39,2.868 2.88,4.809 4.42,5.778 1.56,0.98 3.77,1.511 6.62,1.511 2.07,0 4.02,-0.55 5.92,-1.66 1.87,-1.101 3.34,-2.582 4.37,-4.441 1.02,-1.848 1.55,-3.809 1.55,-5.84 -0.28,-1.269 -0.71,-3.039 -1.31,-5.387 -0.59,-2.3 -1.31,-4.672 -2.19,-7.05 l -35.39,-92.68 c -3.05,-8.141 -6.02,-14.531 -8.95,-19.172 -2.93,-4.629 -6.75,-8.23 -11.58,-10.691 -4.82,-2.5 -11.29,-3.727 -19.43,-3.727 -7.95,0 -13.93,0.859 -17.89,2.578 -3.99,1.738 -5.98,4.879 -5.98,9.449 0,3.11 0.96,5.532 2.85,7.211 1.88,1.68 4.69,2.559 8.38,2.559 1.47,0 2.89,-0.219 4.28,-0.629 1.74,-0.391 3.22,-0.602 4.47,-0.602 3.11,0 5.57,0.473 7.36,1.422 1.8,0.922 3.4,2.5 4.83,4.828 1.42,2.262 3.06,5.641 4.92,10.063"/>
      <path id="path50" style="fill:#201d1c;fill-opacity:1;fill-rule:nonzero;stroke:none" d="m 4174.84,342.109 6.47,0 0,8.153 c 0,8.508 1.03,15.25 3.2,20.289 2.15,5 5.82,8.629 10.96,10.918 5.16,2.281 12.19,3.441 21.11,3.441 15.92,0 23.79,-3.871 23.79,-11.68 0,-2.5 -0.82,-4.652 -2.5,-6.449 -1.6,-1.761 -3.59,-2.672 -5.84,-2.672 -1.03,0 -2.93,0.211 -5.53,0.641 -2.5,0.332 -4.74,0.57 -6.52,0.57 -4.88,0 -8.03,-1.488 -9.45,-4.359 -1.37,-2.871 -2.05,-6.992 -2.05,-12.402 l 0,-6.45 6.62,0 c 10.37,0 15.49,-3.097 15.49,-9.371 0,-4.398 -1.33,-7.226 -4.11,-8.418 -2.73,-1.211 -6.54,-1.8 -11.38,-1.8 l -6.62,0 0,-71.911 c 0,-5.347 -1.27,-9.437 -3.89,-12.25 -2.52,-2.847 -5.78,-4.25 -9.86,-4.25 -3.83,0 -7.03,1.403 -9.61,4.25 -2.54,2.813 -3.81,6.903 -3.81,12.25 l 0,71.911 -7.48,0 c -4.06,0 -7.15,0.882 -9.36,2.742 -2.19,1.789 -3.28,4.199 -3.28,7.09 0,6.539 4.55,9.757 13.65,9.757"/>
      <path id="path52" style="fill:#201d1c;fill-opacity:1;fill-rule:nonzero;stroke:none" d="m 4263.69,273.281 0,-22.672 c 0,-5.488 -1.39,-9.629 -3.91,-12.359 -2.57,-2.781 -5.83,-4.141 -9.8,-4.141 -4,0 -7.21,1.383 -9.71,4.192 -2.48,2.777 -3.77,6.879 -3.77,12.308 l 0,75.59 c 0,12.203 4.4,18.321 13.19,18.321 4.55,0 7.79,-1.43 9.78,-4.282 1.99,-2.847 3.09,-7.047 3.32,-12.656 3.21,5.609 6.53,9.809 9.92,12.656 3.5,2.852 7.99,4.282 13.72,4.282 5.74,0 11.23,-1.43 16.6,-4.282 5.39,-2.847 8.06,-6.66 8.06,-11.367 0,-3.281 -1.15,-6.051 -3.39,-8.16 -2.31,-2.191 -4.77,-3.262 -7.41,-3.262 -1.03,0 -3.45,0.66 -7.26,1.891 -3.81,1.172 -7.19,1.801 -10.08,1.801 -3.97,0 -7.23,-1.082 -9.75,-3.11 -2.54,-2.152 -4.49,-5.211 -5.9,-9.301 -1.36,-4.14 -2.3,-9.058 -2.85,-14.679 -0.5,-5.692 -0.76,-12.621 -0.76,-20.77"/>
      <path id="path54" style="fill:#201d1c;fill-opacity:1;fill-rule:nonzero;stroke:none" d="m 4335.37,298.07 49.22,0 c -0.66,9.258 -3.13,16.231 -7.48,20.782 -4.38,4.648 -10.04,6.918 -17.17,6.918 -6.76,0 -12.32,-2.29 -16.66,-7 -4.35,-4.661 -7.01,-11.559 -7.91,-20.7 m 53.13,-15.429 -53.13,0 c 0.1,-6.172 1.29,-11.621 3.73,-16.332 2.44,-4.649 5.65,-8.219 9.67,-10.618 4.02,-2.41 8.4,-3.562 13.26,-3.562 3.28,0 6.21,0.332 8.91,1.152 2.65,0.731 5.29,1.938 7.79,3.559 2.54,1.621 4.82,3.34 6.97,5.23 2.11,1.86 4.89,4.379 8.26,7.539 1.39,1.192 3.4,1.821 5.94,1.821 2.81,0 5.06,-0.782 6.8,-2.309 1.76,-1.539 2.54,-3.691 2.54,-6.461 0,-2.48 -0.92,-5.308 -2.79,-8.59 -1.98,-3.3 -4.85,-6.449 -8.74,-9.5 -3.92,-2.961 -8.78,-5.5 -14.64,-7.461 -5.84,-1.988 -12.6,-3 -20.22,-3 -17.48,0 -31.03,4.961 -40.68,14.903 -9.67,9.957 -14.55,23.449 -14.55,40.488 0,8.02 1.19,15.48 3.61,22.34 2.34,6.89 5.84,12.73 10.47,17.66 4.55,4.941 10.15,8.691 16.85,11.301 6.7,2.601 14.13,3.91 22.31,3.91 10.57,0 19.67,-2.231 27.27,-6.762 7.57,-4.429 13.33,-10.211 17.05,-17.301 3.8,-7.148 5.68,-14.339 5.68,-21.718 0,-6.801 -1.99,-11.211 -5.9,-13.258 -3.89,-2.012 -9.37,-3.031 -16.46,-3.031"/>
      <path id="path56" style="fill:#201d1c;fill-opacity:1;fill-rule:nonzero;stroke:none" d="m 4448.32,298.07 49.18,0 c -0.65,9.258 -3.16,16.231 -7.48,20.782 -4.39,4.648 -10.06,6.918 -17.19,6.918 -6.76,0 -12.32,-2.29 -16.66,-7 -4.32,-4.661 -6.97,-11.559 -7.85,-20.7 m 53.09,-15.429 -53.09,0 c 0.04,-6.172 1.31,-11.621 3.69,-16.332 2.42,-4.649 5.65,-8.219 9.65,-10.618 4.02,-2.41 8.42,-3.562 13.3,-3.562 3.22,0 6.21,0.332 8.85,1.152 2.71,0.731 5.29,1.938 7.85,3.559 2.54,1.621 4.8,3.34 6.95,5.23 2.07,1.86 4.85,4.379 8.24,7.539 1.43,1.192 3.4,1.821 5.96,1.821 2.82,0 5.06,-0.782 6.82,-2.309 1.72,-1.539 2.48,-3.691 2.48,-6.461 0,-2.48 -0.9,-5.308 -2.83,-8.59 -1.86,-3.3 -4.79,-6.449 -8.71,-9.5 -3.87,-2.961 -8.79,-5.5 -14.59,-7.461 -5.82,-1.988 -12.64,-3 -20.26,-3 -17.44,0 -30.97,4.961 -40.7,14.903 -9.65,9.957 -14.53,23.449 -14.53,40.488 0,8.02 1.23,15.48 3.65,22.34 2.36,6.89 5.86,12.73 10.43,17.66 4.55,4.941 10.18,8.691 16.89,11.301 6.67,2.601 14.13,3.91 22.29,3.91 10.55,0 19.67,-2.231 27.36,-6.762 7.52,-4.429 13.24,-10.211 16.96,-17.301 3.77,-7.148 5.7,-14.339 5.7,-21.718 0,-6.801 -1.99,-11.211 -5.88,-13.258 -3.93,-2.012 -9.41,-3.031 -16.48,-3.031"/>
      <path id="path58" style="fill:#201d1c;fill-opacity:1;fill-rule:nonzero;stroke:none" d="m 4614.08,289.809 c 0,7.152 -1.11,13.32 -3.28,18.441 -2.19,5.152 -5.23,9.102 -9.08,11.809 -3.85,2.761 -8.19,4.16 -12.91,4.16 -7.46,0 -13.79,-2.989 -18.93,-8.848 -5.15,-5.93 -7.73,-14.601 -7.73,-26.09 0,-10.742 2.56,-19.179 7.69,-25.191 5.1,-6 11.37,-8.969 18.97,-8.969 4.49,0 8.71,1.309 12.56,3.867 3.88,2.672 6.95,6.582 9.23,11.813 2.31,5.238 3.48,11.59 3.48,19.008 m -53.22,39.433 0,-3.242 c 5.1,6.27 10.41,10.898 15.96,13.871 5.43,2.949 11.7,4.449 18.65,4.449 8.32,0 16.07,-2.168 23.1,-6.461 7.06,-4.339 12.54,-10.648 16.63,-18.91 4.1,-8.32 6.15,-18.109 6.15,-29.449 0,-8.34 -1.17,-16.039 -3.54,-23.031 -2.32,-7.008 -5.6,-12.848 -9.71,-17.598 -4.1,-4.73 -8.94,-8.402 -14.53,-10.961 -5.68,-2.519 -11.66,-3.801 -18.1,-3.801 -7.72,0 -14.26,1.563 -19.51,4.68 -5.26,3.07 -10.3,7.699 -15.1,13.672 l 0,-40.742 c 0,-11.891 -4.36,-17.91 -13.01,-17.91 -5.14,0 -8.47,1.55 -10.17,4.613 -1.59,3.129 -2.47,7.578 -2.47,13.519 l 0,117.168 c 0,5.192 1.12,9 3.36,11.582 2.25,2.52 5.38,3.829 9.28,3.829 3.85,0 6.95,-1.309 9.38,-3.93 2.46,-2.66 3.63,-6.371 3.63,-11.348"/>
      <path id="path60" style="fill:#201d1c;fill-opacity:1;fill-rule:nonzero;stroke:none" d="m 4682.13,329.109 0,-78.539 c 0,-5.39 -1.29,-9.492 -3.87,-12.269 -2.62,-2.809 -5.9,-4.192 -9.86,-4.192 -4.01,0 -7.17,1.403 -9.73,4.25 -2.44,2.911 -3.69,6.981 -3.69,12.211 l 0,77.75 c 0,5.34 1.25,9.36 3.69,12.09 2.56,2.781 5.72,4.11 9.73,4.11 3.96,0 7.24,-1.329 9.86,-4.11 2.58,-2.73 3.87,-6.5 3.87,-11.301 m -13.46,28.043 c -3.79,0 -6.99,1.188 -9.65,3.496 -2.71,2.321 -4.04,5.582 -4.04,9.821 0,3.832 1.35,7.011 4.12,9.511 2.75,2.469 5.94,3.731 9.57,3.731 3.56,0 6.66,-1.129 9.36,-3.352 2.73,-2.289 4.1,-5.589 4.1,-9.89 0,-4.199 -1.33,-7.457 -3.95,-9.797 -2.67,-2.332 -5.82,-3.52 -9.51,-3.52"/>
      <path id="path62" style="fill:#201d1c;fill-opacity:1;fill-rule:nonzero;stroke:none" d="m 4769.63,246.512 -23.91,39.429 -14.74,-13.921 0,-21.61 c 0,-5.23 -1.39,-9.238 -4.16,-12.051 -2.68,-2.847 -5.9,-4.25 -9.5,-4.25 -4.16,0 -7.48,1.383 -9.82,4.192 -2.38,2.777 -3.59,6.879 -3.59,12.308 l 0,115.801 c 0,6 1.17,10.57 3.43,13.75 2.37,3.18 5.71,4.75 9.98,4.75 4.2,0 7.46,-1.449 9.96,-4.32 2.45,-2.828 3.7,-7.051 3.7,-12.578 l 0,-65.883 30.5,32.07 c 3.81,3.91 6.62,6.68 8.68,8.129 1.99,1.442 4.39,2.192 7.22,2.192 3.42,0 6.21,-1.079 8.52,-3.25 2.23,-2.149 3.36,-4.86 3.36,-8.079 0,-3.972 -3.69,-9.32 -11.06,-15.921 l -14.39,-13.219 27.85,-43.789 c 2.01,-3.282 3.54,-5.711 4.41,-7.391 0.88,-1.66 1.39,-3.34 1.39,-4.84 0,-4.32 -1.21,-7.672 -3.59,-10.211 -2.35,-2.48 -5.47,-3.711 -9.28,-3.711 -3.3,0 -5.88,0.871 -7.66,2.692 -1.79,1.82 -4.27,5.058 -7.3,9.711"/>
      <path id="path64" style="fill:#201d1c;fill-opacity:1;fill-rule:nonzero;stroke:none" d="m 4828.61,234.109 c -4.08,0 -7.59,1.321 -10.62,4 -2.95,2.621 -4.47,6.332 -4.47,11.153 0,4.019 1.44,7.5 4.29,10.41 2.87,2.93 6.37,4.379 10.55,4.379 4.16,0 7.69,-1.449 10.7,-4.321 2.91,-2.89 4.42,-6.41 4.42,-10.468 0,-4.742 -1.51,-8.481 -4.42,-11.09 -3.01,-2.742 -6.48,-4.063 -10.45,-4.063"/>
      <path id="path66" style="fill:#201d1c;fill-opacity:1;fill-rule:nonzero;stroke:none" d="m 4963.63,267.719 c 0,-3.34 -1.01,-6.989 -3.04,-10.821 -2.02,-3.867 -5.12,-7.519 -9.26,-10.996 -4.14,-3.453 -9.34,-6.312 -15.65,-8.422 -6.3,-2.109 -13.41,-3.199 -21.27,-3.199 -16.81,0 -29.92,4.918 -39.33,14.668 -9.36,9.801 -14.08,22.93 -14.08,39.371 0,11.16 2.14,21 6.48,29.551 4.26,8.539 10.51,15.16 18.65,19.809 8.15,4.711 17.97,7.031 29.24,7.031 7.05,0 13.48,-1.039 19.4,-3.09 5.86,-2.051 10.8,-4.723 14.92,-7.949 4.04,-3.301 7.16,-6.731 9.29,-10.371 2.17,-3.692 3.23,-7.141 3.23,-10.352 0,-3.199 -1.19,-5.969 -3.6,-8.238 -2.46,-2.25 -5.39,-3.379 -8.77,-3.379 -2.3,0 -4.16,0.59 -5.66,1.719 -1.5,1.191 -3.18,3.051 -5.02,5.679 -3.32,5.02 -6.76,8.809 -10.41,11.29 -3.59,2.562 -8.18,3.812 -13.75,3.812 -7.99,0 -14.51,-3.121 -19.41,-9.41 -4.91,-6.231 -7.37,-14.871 -7.37,-25.672 0,-5.129 0.67,-9.84 1.94,-14.121 1.21,-4.27 3.04,-7.91 5.43,-10.93 2.42,-3.008 5.27,-5.277 8.65,-6.859 3.4,-1.578 7.11,-2.34 11.13,-2.34 5.45,0 10.1,1.25 14.01,3.77 3.9,2.531 7.34,6.339 10.31,11.539 1.66,3.05 3.41,5.429 5.31,7.171 1.93,1.68 4.3,2.59 7.09,2.59 3.3,0 6.05,-1.3 8.22,-3.8 2.21,-2.5 3.32,-5.219 3.32,-8.051"/>
      <path id="path68" style="fill:#201d1c;fill-opacity:1;fill-rule:nonzero;stroke:none" d="m 5053.53,289.281 c 0,11.09 -2.46,19.707 -7.3,25.86 -4.86,6.23 -11.41,9.281 -19.63,9.281 -5.31,0 -10,-1.371 -14.06,-4.121 -4.06,-2.719 -7.11,-6.801 -9.32,-12.172 -2.19,-5.391 -3.3,-11.66 -3.3,-18.848 0,-7.109 1.1,-13.261 3.24,-18.551 2.17,-5.359 5.28,-9.398 9.28,-12.21 4.04,-2.79 8.75,-4.219 14.16,-4.219 8.22,0 14.77,3.09 19.63,9.32 4.84,6.188 7.3,14.758 7.3,25.66 m 27.25,0 c 0,-8.031 -1.29,-15.531 -3.73,-22.359 -2.6,-6.863 -6.19,-12.703 -11,-17.602 -4.76,-4.898 -10.48,-8.672 -17.07,-11.289 -6.68,-2.601 -14.12,-3.941 -22.38,-3.941 -8.22,0 -15.64,1.34 -22.21,4.019 -6.52,2.621 -12.24,6.422 -17.03,11.332 -4.8,4.981 -8.45,10.821 -10.99,17.559 -2.39,6.711 -3.67,14.16 -3.67,22.281 0,8.239 1.3,15.778 3.75,22.598 2.53,6.851 6.15,12.691 10.87,17.519 4.73,4.844 10.39,8.551 17.07,11.192 6.74,2.621 14.14,3.93 22.21,3.93 8.22,0 15.68,-1.309 22.38,-4.008 6.7,-2.621 12.41,-6.422 17.21,-11.293 4.81,-4.957 8.4,-10.778 10.9,-17.5 2.42,-6.809 3.69,-14.258 3.69,-22.438"/>
      <path id="path70" style="fill:#201d1c;fill-opacity:1;fill-rule:nonzero;stroke:none" d="m 5184.34,287.289 0,-36.078 c 0,-5.699 -1.27,-9.941 -3.89,-12.852 -2.62,-2.847 -5.98,-4.269 -10.22,-4.269 -4.12,0 -7.5,1.422 -9.96,4.269 -2.59,2.911 -3.9,7.153 -3.9,12.852 l 0,43.269 c 0,6.809 -0.22,12.141 -0.65,15.93 -0.49,3.711 -1.78,6.879 -3.79,9.242 -2.07,2.477 -5.33,3.688 -9.76,3.688 -8.91,0 -14.71,-3.039 -17.56,-9.219 -2.77,-6.031 -4.24,-14.801 -4.24,-26.23 l 0,-36.68 c 0,-5.621 -1.27,-9.902 -3.77,-12.809 -2.62,-2.851 -5.96,-4.312 -10.12,-4.312 -4.14,0 -7.5,1.461 -10.11,4.312 -2.62,2.907 -3.93,7.188 -3.93,12.809 l 0,77.66 c 0,5.141 1.15,9.02 3.52,11.641 2.38,2.699 5.49,4.008 9.29,4.008 3.73,0 6.82,-1.29 9.34,-3.719 2.46,-2.52 3.71,-5.93 3.71,-10.309 l 0,-2.582 c 4.75,5.61 9.77,9.75 15.1,12.371 5.43,2.731 11.33,4.039 17.95,4.039 6.81,0 12.67,-1.371 17.56,-4.082 4.92,-2.738 8.92,-6.859 12.14,-12.328 4.59,5.551 9.52,9.672 14.75,12.371 5.25,2.688 11.05,4.039 17.4,4.039 7.4,0 13.85,-1.5 19.2,-4.398 5.35,-2.902 9.36,-7.102 12.01,-12.5 2.31,-4.942 3.46,-12.672 3.46,-23.223 l 0,-52.988 c 0,-5.699 -1.27,-9.941 -3.85,-12.852 -2.58,-2.847 -6.01,-4.269 -10.23,-4.269 -4.14,0 -7.48,1.461 -10.12,4.312 -2.62,2.907 -3.92,7.188 -3.92,12.809 l 0,45.668 c 0,5.859 -0.24,10.492 -0.75,14 -0.48,3.543 -1.83,6.492 -3.98,8.851 -2.23,2.399 -5.57,3.61 -9.98,3.61 -3.58,0 -6.95,-1.11 -10.2,-3.219 -3.2,-2.07 -5.72,-4.98 -7.54,-8.5 -1.95,-4.601 -2.96,-12.691 -2.96,-24.332"/>
      <path id="path72" style="fill:#201d1c;fill-opacity:1;fill-rule:nonzero;stroke:none" d="m 3920.83,295.859 -0.02,0.2 0.02,-0.2"/>
      <path id="path74" style="fill:#201d1c;fill-opacity:1;fill-rule:nonzero;stroke:none" d="m 3922.2,287.191 0.02,0 c -0.51,2.481 -0.92,4.918 -1.23,7.34 0.31,-2.441 0.72,-4.902 1.21,-7.34"/>
      <path id="path76" style="fill:#201d1c;fill-opacity:1;fill-rule:nonzero;stroke:none" d="m 3931.16,262 -0.15,0.352 0.15,-0.352"/>
      <path id="path78" style="fill:#201d1c;fill-opacity:1;fill-rule:nonzero;stroke:none" d="m 3930.32,263.672 -0.68,1.387 0.68,-1.387"/>
      <path id="path80" style="fill:#201d1c;fill-opacity:1;fill-rule:nonzero;stroke:none" d="m 3924.72,277.48 c 1.32,-4.199 2.93,-8.261 4.78,-12.121 -1.89,3.961 -3.46,8.043 -4.74,12.121 l -0.04,0"/>
      <path id="path82" style="fill:#201d1c;fill-opacity:1;fill-rule:nonzero;stroke:none" d="m 4025.89,399.891 c 5.25,0 9.12,-0.43 13.55,-1.18 l 1.25,7.969 c 0,0 -12.24,3.789 -28.36,2.461 l -1.27,4.359 c 5.02,1.031 8.77,5.488 8.77,10.82 0,6.09 -4.96,11.039 -11.05,11.039 -6.11,0 -11.06,-4.949 -11.06,-11.039 0,-5.332 3.75,-9.789 8.75,-10.82 l 1.41,-4.84 c -17.11,-2.351 -30.72,-9.051 -30.72,-9.051 l 2.4,-7.379 c 10.35,3.461 19.32,5.551 27.46,6.43 7.97,0.86 13.99,1.231 18.87,1.231"/>
      <path id="path84" style="fill:#201d1c;fill-opacity:1;fill-rule:nonzero;stroke:none" d="m 3930.97,359.48 0.06,0.09 1.19,1.489 -3.28,2.363 -5.1,3.73 c -0.3,-0.39 -8.32,-7.793 -14.67,-21.441 l -0.94,1.269 c -1.89,2.071 -4.55,3.122 -7.95,3.059 l -0.15,0 c -2.07,0 -3.52,0.711 -4.46,1.551 0.92,1.191 1.51,2.691 1.51,4.312 0,3.868 -3.17,7.008 -7.01,7.008 -3.87,0 -7,-3.14 -7,-7.008 0,-3.871 3.13,-6.992 7,-6.992 l 1.73,0.211 c 1.74,-1.891 4.46,-3.59 8.46,-3.492 2.07,0.019 3.58,-0.508 4.59,-1.617 1.15,-1.274 1.54,-3.11 1.66,-4.481 l -0.04,-0.051 c -4.55,-12.46 -3.24,-27.949 -3.24,-27.949 l 11.06,-0.429 c 0.23,5.617 1.05,15.507 3.88,23.339 5.53,15.168 12.42,24.668 12.7,25.039"/>
      <path id="path86" style="fill:#201d1c;fill-opacity:1;fill-rule:nonzero;stroke:none" d="m 4122.2,390.629 c -3.87,0 -7.03,-3.129 -7.03,-6.988 l 0.25,-1.743 c -1.91,-1.738 -3.57,-4.488 -3.52,-8.496 0.02,-2.05 -0.5,-3.55 -1.62,-4.55 -0.89,-0.801 -1.99,-1.211 -3.08,-1.481 -8.24,11.539 -18.4,18.59 -18.4,18.59 l -7.93,-8.539 c 6.02,-5.422 12.13,-12.281 18.09,-20.813 4.12,-5.898 8.37,-13.519 11.89,-21.078 l 10.72,5.078 c 0,0 -4.9,12.09 -11.79,22.95 1.21,0.41 2.42,1.05 3.47,1.992 2.11,1.898 3.13,4.57 3.07,7.929 -0.02,2.192 0.7,3.672 1.56,4.629 1.17,-0.898 2.68,-1.488 4.32,-1.488 3.85,0 7,3.149 7,7.02 0,3.859 -3.15,6.988 -7,6.988"/>
      <path id="path88" style="fill:#201d1c;fill-opacity:1;fill-rule:nonzero;stroke:none" d="m 4094.39,294.301 c -14.77,-7.192 -39.03,-16.68 -71,-21.153 -12.54,-1.718 -24.71,-2.367 -35.9,-2.367 -14.55,0 -27.4,1.078 -37.28,2.328 -11.27,1.422 -20.06,3.161 -25.45,4.371 1.28,-4.078 2.85,-8.16 4.74,-12.121 l 0.14,-0.3 0.68,-1.387 0.69,-1.32 0.15,-0.352 c 3.19,-5.961 6.99,-11.469 11.33,-16.219 15.08,-16.5 30.43,-19.082 30.57,-19.121 l 0.25,-0.039 0.22,-0.07 c 0.13,-0.039 13.75,-4.442 34.45,-4.442 20.37,0 40.33,4.121 59.39,12.211 14.1,7.211 27.44,18.18 34.07,27.95 5.11,7.558 8.8,15.64 10.99,24 1.15,4.48 2.07,11.601 1.54,19.121 -4.16,-2.789 -10.72,-6.77 -19.58,-11.09"/>
      <path id="path90" style="fill:#201d1c;fill-opacity:1;fill-rule:nonzero;stroke:none" d="m 3977.86,363.699 c 16.31,0 29.49,-13.207 29.49,-29.48 0,-16.309 -13.18,-29.469 -29.49,-29.469 -16.27,0 -29.47,13.16 -29.47,29.469 0,16.273 13.2,29.48 29.47,29.48 z m 86.29,-0.73 c 10.06,0 18.24,-8.16 18.24,-18.239 0,-10.078 -8.18,-18.261 -18.24,-18.261 -10.06,0 -18.24,8.183 -18.24,18.261 0,10.079 8.18,18.239 18.24,18.239 z M 3935.71,356 c -0.43,-0.629 -6.83,-9.691 -11.87,-23.59 -3.79,-10.43 -3.63,-25.59 -3.63,-25.769 l 0,-0.02 c 0,-3.551 0.19,-7.09 0.6,-10.562 l 0.02,-0.2 0.16,-1.328 c 0.31,-2.422 0.72,-4.859 1.23,-7.34 7.34,-1.871 51.07,-12.07 99.94,-5.25 30.66,4.258 53.9,13.297 68.03,20.149 11.73,5.711 19.27,10.859 22.2,12.969 -2.89,10.761 -10.9,27.64 -18.22,38.171 -21.02,30 -43.65,37.692 -55.27,39.61 -4.44,0.719 -7.97,1.129 -13.01,1.129 -4.69,0 -10.49,-0.348 -18.24,-1.168 -7.78,-0.821 -16.45,-2.879 -26.51,-6.25 -14.12,-4.711 -26.87,-12.129 -36.93,-21.449 l -0.33,-0.313 c -1.49,-1.367 -4.59,-4.258 -8.17,-8.789"/>
      <g id="g92">
        <g id="g94" style="clip-path: url(#clipPath96);">
          <path id="path106" style="fill:url(#radialGradient100);fill-opacity:1;fill-rule:nonzero;stroke:none" d="m 3957.16,2950.52 c -483.85,0 -876.09,392.24 -876.09,876.09 0,483.85 392.24,876.09 876.09,876.09 483.85,0 876.09,-392.24 876.09,-876.09 0,-483.85 -392.24,-876.09 -876.09,-876.09"/>
        </g>
      </g>
      <path id="path108" style="fill:#fbc68b;fill-opacity:1;fill-rule:nonzero;stroke:none" d="m 1543.09,5489.35 293.941,0 0,329.219 -293.941,0 0,-329.219 z"/>
      <path id="path110" style="fill:#f9b271;fill-opacity:1;fill-rule:nonzero;stroke:none" d="m 1543.09,5779.8 c 0,0 123.65,-78.75 293.94,-60.51 l 0,99.28 -293.94,0 0,-38.77"/>
      <path id="path112" style="fill:#f9b271;fill-opacity:1;fill-rule:nonzero;stroke:none" d="m 1262.65,6329.07 c 0,-90.37 -64.21,-163.64 -143.43,-163.64 -79.21,0 -143.431,73.27 -143.431,163.64 0,90.38 64.221,163.64 143.431,163.64 79.22,0 143.43,-73.26 143.43,-163.64"/>
      <path id="path114" style="fill:#f9b271;fill-opacity:1;fill-rule:nonzero;stroke:none" d="m 2404.33,6329.07 c 0,-90.37 -64.21,-163.64 -143.43,-163.64 -79.22,0 -143.43,73.27 -143.43,163.64 0,90.38 64.21,163.64 143.43,163.64 79.22,0 143.43,-73.26 143.43,-163.64"/>
      <path id="path116" style="fill:#fbc68b;fill-opacity:1;fill-rule:nonzero;stroke:none" d="m 2260.32,6641.63 c 0,241.04 -176.37,417.41 -570.26,417.41 -393.89,0 -570.26,-176.37 -570.26,-417.41 0,-241.04 -41.15,-875.97 570.26,-875.97 611.41,0 570.26,634.93 570.26,875.97"/>
      <path id="path118" style="fill:#342019;fill-opacity:1;fill-rule:nonzero;stroke:none" d="m 1474.04,6368.26 c 0,-37.34 -27.64,-67.61 -61.73,-67.61 -34.09,0 -61.73,30.27 -61.73,67.61 0,37.34 27.64,67.61 61.73,67.61 34.09,0 61.73,-30.27 61.73,-67.61"/>
      <path id="path120" style="fill:#ffffff;fill-opacity:1;fill-rule:nonzero;stroke:none" d="m 1403.86,6398.11 c 0,-10.2 -8.27,-18.46 -18.47,-18.46 -10.19,0 -18.46,8.26 -18.46,18.46 0,10.2 8.27,18.47 18.46,18.47 10.2,0 18.47,-8.27 18.47,-18.47"/>
      <path id="path122" style="fill:#4a2e26;fill-opacity:1;fill-rule:nonzero;stroke:none" d="m 1313.55,6535.81 c 29.19,-14.6 76.06,49.6 183.35,-6.25 19.56,-10.18 31.24,87.08 -83.77,87.08 -99.58,0 -117.21,-72.01 -99.58,-80.83"/>
      <path id="path124" style="fill:#342019;fill-opacity:1;fill-rule:nonzero;stroke:none" d="m 2037.17,6368.26 c 0,-37.34 -27.63,-67.61 -61.72,-67.61 -34.1,0 -61.73,30.27 -61.73,67.61 0,37.34 27.63,67.61 61.73,67.61 34.09,0 61.72,-30.27 61.72,-67.61"/>
      <path id="path126" style="fill:#ffffff;fill-opacity:1;fill-rule:nonzero;stroke:none" d="m 1966.99,6398.11 c 0,-10.2 -8.26,-18.46 -18.46,-18.46 -10.2,0 -18.46,8.26 -18.46,18.46 0,10.2 8.26,18.47 18.46,18.47 10.2,0 18.46,-8.27 18.46,-18.47"/>
      <path id="path128" style="fill:#4a2e26;fill-opacity:1;fill-rule:nonzero;stroke:none" d="m 2066.57,6535.81 c -29.19,-14.6 -76.06,49.6 -183.35,-6.25 -19.56,-10.18 -31.23,87.08 83.77,87.08 99.58,0 117.22,-72.01 99.58,-80.83"/>
      <path id="path130" style="fill:#f9b271;fill-opacity:1;fill-rule:nonzero;stroke:none" d="m 1690.06,6130.46 c -60.99,0 -97.74,45.56 -97.74,23.51 0,-22.05 17.64,-63.93 97.74,-63.93 80.1,0 97.74,41.88 97.74,63.93 0,22.05 -36.75,-23.51 -97.74,-23.51"/>
      <path id="path132" style="fill:#f9b271;fill-opacity:1;fill-rule:nonzero;stroke:none" d="m 1690.06,5927.75 c -21.09,0 -33.8,15.76 -33.8,8.13 0,-7.63 6.1,-22.11 33.8,-22.11 27.71,0 33.81,14.48 33.81,22.11 0,7.63 -12.71,-8.13 -33.81,-8.13"/>
      <path id="path134" style="fill:#f6834c;fill-opacity:1;fill-rule:nonzero;stroke:none" d="m 1690.06,5983.92 c -96.68,0 -154.93,39.37 -154.93,29.39 0,-9.97 27.96,-49.23 154.93,-49.23 126.97,0 154.93,39.26 154.93,49.23 0,9.98 -58.25,-29.39 -154.93,-29.39"/>
      <path id="path136" style="fill:#f68815;fill-opacity:1;fill-rule:nonzero;stroke:none" d="m 1690.06,5686.3 0,-370.38 -714.271,0 c 0,149.92 376.231,370.38 714.271,370.38"/>
      <path id="path138" style="fill:#f68815;fill-opacity:1;fill-rule:nonzero;stroke:none" d="m 1690.06,5686.3 0,-370.38 714.28,0 c 0,149.92 -376.24,370.38 -714.28,370.38"/>
      <path id="path140" style="fill:#f2591c;fill-opacity:1;fill-rule:nonzero;stroke:none" d="m 1690.06,5686.3 c -71.9,0 -145.52,-10.05 -216.89,-27.2 0.48,-0.63 79.16,-102.14 216.89,-102.14 127.55,0 212.33,86.93 224.62,100.31 -73.77,18.3 -150.12,29.03 -224.62,29.03"/>
      <path id="path142" style="fill:#fbc68b;fill-opacity:1;fill-rule:nonzero;stroke:none" d="m 1543.09,5673.48 c 0,0 42.99,-53.32 146.97,-53.32 103.98,0 146.97,53.32 146.97,53.32 0,0 -152.48,55.52 -293.94,0"/>
      <path id="path144" style="fill:#4a2e26;fill-opacity:1;fill-rule:nonzero;stroke:none" d="m 2158.91,7110.48 c 0,0 -211.64,268.96 -651.52,167.55 -439.88,-101.41 -472.83,-365.97 -459.61,-623.36 13.23,-257.4 48.5,-408.4 90.22,-389.74 41.72,18.67 20.01,188.57 24.42,227.78 4.41,39.21 44.1,216.53 311.62,190.07 267.52,-26.45 492.95,70.55 492.95,70.55 0,0 90.75,-114.71 150.48,-136.69 119.33,-43.91 80.19,-336.69 126.95,-336.69 46.76,0 276.04,676.2 -85.51,830.53"/>
      <path id="path146" style="fill:#fbc68b;fill-opacity:1;fill-rule:nonzero;stroke:none" d="m 6187.79,5489.35 293.941,0 0,329.219 -293.941,0 0,-329.219 z"/>
      <path id="path148" style="fill:#f9b271;fill-opacity:1;fill-rule:nonzero;stroke:none" d="m 6187.79,5779.8 c 0,0 123.65,-78.75 293.94,-60.51 l 0,99.28 -293.94,0 0,-38.77"/>
      <path id="path150" style="fill:#f9b271;fill-opacity:1;fill-rule:nonzero;stroke:none" d="m 5907.35,6329.07 c 0,-90.37 -64.21,-163.64 -143.43,-163.64 -79.22,0 -143.43,73.27 -143.43,163.64 0,90.38 64.21,163.64 143.43,163.64 79.22,0 143.43,-73.26 143.43,-163.64"/>
      <path id="path152" style="fill:#f9b271;fill-opacity:1;fill-rule:nonzero;stroke:none" d="m 7049.03,6329.07 c 0,-90.37 -64.21,-163.64 -143.43,-163.64 -79.22,0 -143.43,73.27 -143.43,163.64 0,90.38 64.21,163.64 143.43,163.64 79.22,0 143.43,-73.26 143.43,-163.64"/>
      <path id="path154" style="fill:#fbc68b;fill-opacity:1;fill-rule:nonzero;stroke:none" d="m 6905.02,6641.63 c 0,241.04 -176.37,417.41 -570.26,417.41 -393.89,0 -570.26,-176.37 -570.26,-417.41 0,-241.04 -41.15,-875.97 570.26,-875.97 611.41,0 570.26,634.93 570.26,875.97"/>
      <path id="path156" style="fill:#342019;fill-opacity:1;fill-rule:nonzero;stroke:none" d="m 6118.73,6368.26 c 0,-37.34 -27.63,-67.61 -61.72,-67.61 -34.1,0 -61.73,30.27 -61.73,67.61 0,37.34 27.63,67.61 61.73,67.61 34.09,0 61.72,-30.27 61.72,-67.61"/>
      <path id="path158" style="fill:#ffffff;fill-opacity:1;fill-rule:nonzero;stroke:none" d="m 6048.55,6398.11 c 0,-10.2 -8.26,-18.46 -18.46,-18.46 -10.2,0 -18.46,8.26 -18.46,18.46 0,10.2 8.26,18.47 18.46,18.47 10.2,0 18.46,-8.27 18.46,-18.47"/>
      <path id="path160" style="fill:#da5f1d;fill-opacity:1;fill-rule:nonzero;stroke:none" d="m 5958.25,6535.81 c 29.19,-14.6 76.06,49.6 183.35,-6.25 19.56,-10.18 31.24,87.08 -83.77,87.08 -99.58,0 -117.21,-72.01 -99.58,-80.83"/>
      <path id="path162" style="fill:#342019;fill-opacity:1;fill-rule:nonzero;stroke:none" d="m 6681.87,6368.26 c 0,-37.34 -27.63,-67.61 -61.73,-67.61 -34.09,0 -61.73,30.27 -61.73,67.61 0,37.34 27.64,67.61 61.73,67.61 34.1,0 61.73,-30.27 61.73,-67.61"/>
      <path id="path164" style="fill:#ffffff;fill-opacity:1;fill-rule:nonzero;stroke:none" d="m 6611.69,6398.11 c 0,-10.2 -8.26,-18.46 -18.46,-18.46 -10.2,0 -18.46,8.26 -18.46,18.46 0,10.2 8.26,18.47 18.46,18.47 10.2,0 18.46,-8.27 18.46,-18.47"/>
      <path id="path166" style="fill:#da5f1d;fill-opacity:1;fill-rule:nonzero;stroke:none" d="m 6711.27,6535.81 c -29.19,-14.6 -76.06,49.6 -183.35,-6.25 -19.56,-10.18 -31.23,87.08 83.77,87.08 99.58,0 117.22,-72.01 99.58,-80.83"/>
      <path id="path168" style="fill:#f9b271;fill-opacity:1;fill-rule:nonzero;stroke:none" d="m 6334.76,6130.46 c -60.99,0 -97.74,45.56 -97.74,23.51 0,-22.05 17.64,-63.93 97.74,-63.93 80.1,0 97.74,41.88 97.74,63.93 0,22.05 -36.75,-23.51 -97.74,-23.51"/>
      <path id="path170" style="fill:#f9b271;fill-opacity:1;fill-rule:nonzero;stroke:none" d="m 6334.76,5927.75 c -21.09,0 -33.8,15.76 -33.8,8.13 0,-7.63 6.1,-22.11 33.8,-22.11 27.71,0 33.81,14.48 33.81,22.11 0,7.63 -12.71,-8.13 -33.81,-8.13"/>
      <path id="path172" style="fill:#f6834c;fill-opacity:1;fill-rule:nonzero;stroke:none" d="m 6334.76,5983.92 c -96.68,0 -154.93,39.37 -154.93,29.39 0,-9.97 27.96,-49.23 154.93,-49.23 126.97,0 154.93,39.26 154.93,49.23 0,9.98 -58.25,-29.39 -154.93,-29.39"/>
      <path id="path174" style="fill:#bbe4f8;fill-opacity:1;fill-rule:nonzero;stroke:none" d="m 6334.76,5686.3 0,-370.38 -714.27,0 c 0,149.92 376.23,370.38 714.27,370.38"/>
      <path id="path176" style="fill:#bbe4f8;fill-opacity:1;fill-rule:nonzero;stroke:none" d="m 6334.76,5686.3 0,-370.38 714.27,0 c 0,149.92 -376.23,370.38 -714.27,370.38"/>
      <path id="path178" style="fill:#fbc68b;fill-opacity:1;fill-rule:nonzero;stroke:none" d="m 6187.79,5673.48 c 0,0 42.99,-53.32 146.97,-53.32 103.98,0 146.97,53.32 146.97,53.32 0,0 -152.48,55.52 -293.94,0"/>
      <path id="path180" style="fill:#da5f1d;fill-opacity:1;fill-rule:nonzero;stroke:none" d="m 5763.92,6368.26 c 50.64,0 94.64,151.38 90.23,248.38 -4.4,97.01 56.46,167.55 175.94,220.46 0,0 342.29,-97 581.6,-97 313.91,0 230.64,-368.9 287.71,-371.84 57.06,-2.94 118.79,420.34 52.65,662.85 0,0 101.41,52.91 132.28,119.05 30.86,66.14 -79.68,4.41 -178.73,0 0,0 176.04,114.64 184,194 7.96,79.37 -323.39,-83.77 -692.29,-44.09 -368.91,39.69 -673.66,-166.2 -688.66,-480.6 -13.23,-277.17 9.13,-451.21 55.27,-451.21"/>
      <path id="path182" style="fill:#8dd5f5;fill-opacity:1;fill-rule:nonzero;stroke:none" d="m 6187.79,5709.81 146.97,-89.65 -154.93,-154.32 -115.09,179.11 c 0,0 75.28,74.09 123.05,64.86"/>
      <path id="path184" style="fill:#8dd5f5;fill-opacity:1;fill-rule:nonzero;stroke:none" d="m 6481.73,5709.81 -146.97,-89.65 154.93,-154.32 115.1,179.11 c 0,0 -75.29,74.09 -123.06,64.86"/>
      <path id="path186" style="fill:#79cff4;fill-opacity:1;fill-rule:nonzero;stroke:none" d="m 6334.76,5620.16 0,-304.24 23.19,281.14 -23.19,23.1"/>
      <path id="path188" style="fill:#79cff4;fill-opacity:1;fill-rule:nonzero;stroke:none" d="m 6323.74,5534.18 c 0,-12.58 -10.2,-22.78 -22.78,-22.78 -12.59,0 -22.79,10.2 -22.79,22.78 0,12.58 10.2,22.78 22.79,22.78 12.58,0 22.78,-10.2 22.78,-22.78"/>
      <path id="path190" style="fill:#79cff4;fill-opacity:1;fill-rule:nonzero;stroke:none" d="m 6323.74,5353.4 c 0,-12.58 -10.2,-22.78 -22.78,-22.78 -12.59,0 -22.79,10.2 -22.79,22.78 0,12.58 10.2,22.78 22.79,22.78 12.58,0 22.78,-10.2 22.78,-22.78"/>
      <path id="path192" style="fill:#624231;fill-opacity:1;fill-rule:nonzero;stroke:none" d="m 1090.81,3724.63 c 0,0 56.83,-114.37 0,-253.53 -34.21,-83.78 71.61,-30.86 102.48,0 0,0 30.86,-98.96 -30.87,-177.35 -61.73,-78.38 116.14,-53.13 170.51,108.41 0,0 29.96,-138.29 -70.28,-239.71 -100.23,-101.41 420.19,-61.72 420.19,-61.72 l 0,664.32 -592.03,-40.42"/>
      <path id="path194" style="fill:#4d3426;fill-opacity:1;fill-rule:nonzero;stroke:none" d="m 2282.09,3724.63 c 0,0 -56.83,-114.37 0,-253.53 34.21,-83.78 -71.61,-30.86 -102.47,0 0,0 -30.87,-98.96 30.86,-177.35 61.73,-78.38 -116.13,-53.13 -170.5,108.41 0,0 -29.96,-138.29 70.27,-239.71 100.23,-101.41 -420.19,-61.72 -420.19,-61.72 l 0,664.32 592.03,-40.42"/>
      <path id="path196" style="fill:#fbc68b;fill-opacity:1;fill-rule:nonzero;stroke:none" d="m 1543.09,3123.95 293.941,0 0,329.223 -293.941,0 0,-329.223 z"/>
      <path id="path198" style="fill:#f9b271;fill-opacity:1;fill-rule:nonzero;stroke:none" d="m 1543.09,3414.39 c 0,0 123.65,-78.74 293.94,-60.5 l 0,99.28 -293.94,0 0,-38.78"/>
      <path id="path200" style="fill:#f9b271;fill-opacity:1;fill-rule:nonzero;stroke:none" d="m 1262.65,3963.67 c 0,-90.38 -64.21,-163.64 -143.43,-163.64 -79.21,0 -143.431,73.26 -143.431,163.64 0,90.37 64.221,163.64 143.431,163.64 79.22,0 143.43,-73.27 143.43,-163.64"/>
      <path id="path202" style="fill:#f9b271;fill-opacity:1;fill-rule:nonzero;stroke:none" d="m 2404.33,3963.67 c 0,-90.38 -64.21,-163.64 -143.43,-163.64 -79.22,0 -143.43,73.26 -143.43,163.64 0,90.37 64.21,163.64 143.43,163.64 79.22,0 143.43,-73.27 143.43,-163.64"/>
      <path id="path204" style="fill:#fbc68b;fill-opacity:1;fill-rule:nonzero;stroke:none" d="m 2260.32,4276.22 c 0,241.04 -176.37,417.41 -570.26,417.41 -393.89,0 -570.26,-176.37 -570.26,-417.41 0,-241.03 -41.15,-875.96 570.26,-875.96 611.41,0 570.26,634.93 570.26,875.96"/>
      <path id="path206" style="fill:#342019;fill-opacity:1;fill-rule:nonzero;stroke:none" d="m 1474.04,4002.85 c 0,-37.34 -27.64,-67.61 -61.73,-67.61 -34.09,0 -61.73,30.27 -61.73,67.61 0,37.34 27.64,67.61 61.73,67.61 34.09,0 61.73,-30.27 61.73,-67.61"/>
      <path id="path208" style="fill:#ffffff;fill-opacity:1;fill-rule:nonzero;stroke:none" d="m 1403.86,4032.71 c 0,-10.2 -8.27,-18.47 -18.47,-18.47 -10.19,0 -18.46,8.27 -18.46,18.47 0,10.19 8.27,18.46 18.46,18.46 10.2,0 18.47,-8.27 18.47,-18.46"/>
      <path id="path210" style="fill:#624231;fill-opacity:1;fill-rule:nonzero;stroke:none" d="m 1313.55,4170.4 c 29.19,-14.59 76.06,49.61 183.35,-6.24 19.56,-10.18 31.24,87.08 -83.77,87.08 -99.58,0 -117.21,-72.02 -99.58,-80.84"/>
      <path id="path212" style="fill:#342019;fill-opacity:1;fill-rule:nonzero;stroke:none" d="m 2037.17,4002.85 c 0,-37.34 -27.63,-67.61 -61.72,-67.61 -34.1,0 -61.73,30.27 -61.73,67.61 0,37.34 27.63,67.61 61.73,67.61 34.09,0 61.72,-30.27 61.72,-67.61"/>
      <path id="path214" style="fill:#ffffff;fill-opacity:1;fill-rule:nonzero;stroke:none" d="m 1966.99,4032.71 c 0,-10.2 -8.26,-18.47 -18.46,-18.47 -10.2,0 -18.46,8.27 -18.46,18.47 0,10.19 8.26,18.46 18.46,18.46 10.2,0 18.46,-8.27 18.46,-18.46"/>
      <path id="path216" style="fill:#624231;fill-opacity:1;fill-rule:nonzero;stroke:none" d="m 2066.57,4170.4 c -29.19,-14.59 -76.06,49.61 -183.35,-6.24 -19.56,-10.18 -31.23,87.08 83.77,87.08 99.58,0 117.22,-72.02 99.58,-80.84"/>
      <path id="path218" style="fill:#f9b271;fill-opacity:1;fill-rule:nonzero;stroke:none" d="m 1690.06,3765.05 c -60.99,0 -97.74,45.56 -97.74,23.51 0,-22.04 17.64,-63.93 97.74,-63.93 80.1,0 97.74,41.89 97.74,63.93 0,22.05 -36.75,-23.51 -97.74,-23.51"/>
      <path id="path220" style="fill:#f9b271;fill-opacity:1;fill-rule:nonzero;stroke:none" d="m 1690.06,3562.34 c -21.09,0 -33.8,15.76 -33.8,8.13 0,-7.62 6.1,-22.11 33.8,-22.11 27.71,0 33.81,14.49 33.81,22.11 0,7.63 -12.71,-8.13 -33.81,-8.13"/>
      <path id="path222" style="fill:#f6834c;fill-opacity:1;fill-rule:nonzero;stroke:none" d="m 1690.06,3618.52 c -96.68,0 -154.93,39.36 -154.93,29.39 0,-9.97 27.96,-49.24 154.93,-49.24 126.97,0 154.93,39.27 154.93,49.24 0,9.97 -58.25,-29.39 -154.93,-29.39"/>
      <path id="path224" style="fill:#bdb08c;fill-opacity:1;fill-rule:nonzero;stroke:none" d="m 1690.06,3320.89 0,-370.37 -714.271,0 c 0,149.91 376.231,370.37 714.271,370.37"/>
      <path id="path226" style="fill:#bdb08c;fill-opacity:1;fill-rule:nonzero;stroke:none" d="m 1690.06,3320.89 0,-370.37 714.28,0 c 0,149.91 -376.24,370.37 -714.28,370.37"/>
      <path id="path228" style="fill:#624231;fill-opacity:1;fill-rule:nonzero;stroke:none" d="m 955.191,3963.67 c -73.871,363.65 17.637,640.6 -17.636,680.28 -35.278,39.69 -92.594,-13.22 -97.004,17.64 -4.41,30.87 92.594,79.37 135.238,127.87 42.641,48.5 32.311,198.41 71.991,154.32 39.69,-44.09 0,-145.5 0,-145.5 458.56,630.52 1216.95,154.32 1300.72,-66.14 83.78,-220.46 220.47,-374.78 163.15,-374.78 -67.16,0 -107.31,92.59 -107.31,92.59 0,0 63.21,-176.37 32.35,-435.71 -30.87,-259.33 -308.63,-416.49 -267.15,-347.93 84.87,140.26 20.23,404.15 20.23,404.15 -4.41,-26.75 -48.5,-65.84 -49.93,-19.29 -7.26,236.26 -144.07,306.19 -144.07,306.19 0,0 48.5,-74.96 -20.32,-70.55 -206.27,13.21 -341.24,97 -341.24,97 0,0 48.5,-97 0,-97 -163.38,0 -326.68,97 -326.68,97 0,0 -82.04,-167.48 -79.78,-313.35 0.81,-52.62 -52.1,4.7 -52.1,44.39 0,0 -57.79,-310.7 43.41,-464.62 44.48,-67.65 -217.27,84.04 -263.869,313.44"/>
      <path id="path230" style="fill:#988f73;fill-opacity:1;fill-rule:nonzero;stroke:none" d="m 1444.46,3286.36 245.6,-335.84 0,185.18 -110.32,177.71 c -45.55,-5.9 -90.95,-15.12 -135.28,-27.05"/>
      <path id="path232" style="fill:#988f73;fill-opacity:1;fill-rule:nonzero;stroke:none" d="m 1935.66,3286.36 -245.6,-335.84 0,185.18 110.32,177.71 c 45.55,-5.9 90.95,-15.12 135.28,-27.05"/>
      <path id="path234" style="fill:#fbc68b;fill-opacity:1;fill-rule:nonzero;stroke:none" d="m 1543.09,3308.07 146.97,-227.19 146.98,227.2 c 0,0 -152.49,55.51 -293.95,-0.01"/>
      <path id="path236" style="fill:#fbc68b;fill-opacity:1;fill-rule:nonzero;stroke:none" d="m 6187.79,3123.95 293.941,0 0,329.223 -293.941,0 0,-329.223 z"/>
      <path id="path238" style="fill:#f9b271;fill-opacity:1;fill-rule:nonzero;stroke:none" d="m 6187.79,3414.39 c 0,0 123.65,-78.74 293.94,-60.5 l 0,99.28 -293.94,0 0,-38.78"/>
      <path id="path240" style="fill:#f9b271;fill-opacity:1;fill-rule:nonzero;stroke:none" d="m 5907.35,3963.67 c 0,-90.38 -64.21,-163.64 -143.43,-163.64 -79.22,0 -143.43,73.26 -143.43,163.64 0,90.37 64.21,163.64 143.43,163.64 79.22,0 143.43,-73.27 143.43,-163.64"/>
      <path id="path242" style="fill:#f9b271;fill-opacity:1;fill-rule:nonzero;stroke:none" d="m 7049.03,3963.67 c 0,-90.38 -64.21,-163.64 -143.43,-163.64 -79.22,0 -143.43,73.26 -143.43,163.64 0,90.37 64.21,163.64 143.43,163.64 79.22,0 143.43,-73.27 143.43,-163.64"/>
      <path id="path244" style="fill:#fbc68b;fill-opacity:1;fill-rule:nonzero;stroke:none" d="m 6905.02,4276.22 c 0,241.04 -176.37,417.41 -570.26,417.41 -393.89,0 -570.26,-176.37 -570.26,-417.41 0,-241.03 -41.15,-875.96 570.26,-875.96 611.41,0 570.26,634.93 570.26,875.96"/>
      <path id="path246" style="fill:#342019;fill-opacity:1;fill-rule:nonzero;stroke:none" d="m 6118.73,4002.85 c 0,-37.34 -27.63,-67.61 -61.72,-67.61 -34.1,0 -61.73,30.27 -61.73,67.61 0,37.34 27.63,67.61 61.73,67.61 34.09,0 61.72,-30.27 61.72,-67.61"/>
      <path id="path248" style="fill:#ffffff;fill-opacity:1;fill-rule:nonzero;stroke:none" d="m 6048.55,4032.71 c 0,-10.2 -8.26,-18.47 -18.46,-18.47 -10.2,0 -18.46,8.27 -18.46,18.47 0,10.19 8.26,18.46 18.46,18.46 10.2,0 18.46,-8.27 18.46,-18.46"/>
      <path id="path250" style="fill:#bb8a3a;fill-opacity:1;fill-rule:nonzero;stroke:none" d="m 5958.25,4170.4 c 29.19,-14.59 76.06,49.61 183.35,-6.24 19.56,-10.18 31.24,87.08 -83.77,87.08 -99.58,0 -117.21,-72.02 -99.58,-80.84"/>
      <path id="path252" style="fill:#342019;fill-opacity:1;fill-rule:nonzero;stroke:none" d="m 6681.87,4002.85 c 0,-37.34 -27.63,-67.61 -61.73,-67.61 -34.09,0 -61.73,30.27 -61.73,67.61 0,37.34 27.64,67.61 61.73,67.61 34.1,0 61.73,-30.27 61.73,-67.61"/>
      <path id="path254" style="fill:#ffffff;fill-opacity:1;fill-rule:nonzero;stroke:none" d="m 6611.69,4032.71 c 0,-10.2 -8.26,-18.47 -18.46,-18.47 -10.2,0 -18.46,8.27 -18.46,18.47 0,10.19 8.26,18.46 18.46,18.46 10.2,0 18.46,-8.27 18.46,-18.46"/>
      <path id="path256" style="fill:#bb8a3a;fill-opacity:1;fill-rule:nonzero;stroke:none" d="m 6711.27,4170.4 c -29.19,-14.59 -76.06,49.61 -183.35,-6.24 -19.56,-10.18 -31.23,87.08 83.77,87.08 99.58,0 117.22,-72.02 99.58,-80.84"/>
      <path id="path258" style="fill:#f9b271;fill-opacity:1;fill-rule:nonzero;stroke:none" d="m 6334.76,3765.05 c -60.99,0 -97.74,45.56 -97.74,23.51 0,-22.04 17.64,-63.93 97.74,-63.93 80.1,0 97.74,41.89 97.74,63.93 0,22.05 -36.75,-23.51 -97.74,-23.51"/>
      <path id="path260" style="fill:#f9b271;fill-opacity:1;fill-rule:nonzero;stroke:none" d="m 6334.76,3562.34 c -21.09,0 -33.8,15.76 -33.8,8.13 0,-7.62 6.1,-22.11 33.8,-22.11 27.71,0 33.81,14.49 33.81,22.11 0,7.63 -12.71,-8.13 -33.81,-8.13"/>
      <path id="path262" style="fill:#f6834c;fill-opacity:1;fill-rule:nonzero;stroke:none" d="m 6334.76,3618.52 c -96.68,0 -154.93,39.36 -154.93,29.39 0,-9.97 27.96,-49.24 154.93,-49.24 126.97,0 154.93,39.27 154.93,49.24 0,9.97 -58.25,-29.39 -154.93,-29.39"/>
      <path id="path264" style="fill:#736879;fill-opacity:1;fill-rule:nonzero;stroke:none" d="m 6334.76,3320.89 0,-370.37 714.27,0 c 0,149.91 -376.23,370.37 -714.27,370.37"/>
      <path id="path266" style="fill:#736879;fill-opacity:1;fill-rule:nonzero;stroke:none" d="m 6334.76,3320.89 0,-370.37 -714.27,0 c 0,149.91 376.23,370.37 714.27,370.37"/>
      <path id="path268" style="fill:#5f5463;fill-opacity:1;fill-rule:nonzero;stroke:none" d="m 6004.1,3259.77 177.94,-309.25 152.72,0 0,44.61 -216.71,298.61 c -38.88,-9.34 -77.05,-20.82 -113.95,-33.97"/>
      <path id="path270" style="fill:#5f5463;fill-opacity:1;fill-rule:nonzero;stroke:none" d="m 6665.42,3259.77 -177.94,-309.25 -152.72,0 0,44.61 216.71,298.61 c 38.88,-9.34 77.05,-20.82 113.95,-33.97"/>
      <path id="path272" style="fill:#ffffff;fill-opacity:1;fill-rule:nonzero;stroke:none" d="m 6086.62,3285.7 c 66.92,-110.21 187.84,-299.83 248.14,-335.18 l 0,370.37 c -82.46,0 -167.15,-13.19 -248.14,-35.19"/>
      <path id="path274" style="fill:#ffffff;fill-opacity:1;fill-rule:nonzero;stroke:none" d="m 6582.9,3285.7 c -66.92,-110.21 -187.85,-299.83 -248.14,-335.18 l 0,370.37 c 82.46,0 167.15,-13.19 248.14,-35.19"/>
      <path id="path276" style="fill:#c7c3c1;fill-opacity:1;fill-rule:nonzero;stroke:none" d="m 6337.39,3320.89 c -71.91,0 -145.52,-10.05 -216.89,-27.2 0.48,-0.62 79.16,-102.13 216.89,-102.13 127.54,0 212.33,86.93 224.62,100.3 -73.77,18.3 -150.12,29.03 -224.62,29.03"/>
      <path id="path278" style="fill:#fbc68b;fill-opacity:1;fill-rule:nonzero;stroke:none" d="m 6187.79,3308.07 c 0,0 42.99,-58.9 146.97,-58.9 103.98,0 146.97,58.91 146.97,58.91 0,0 -152.48,55.51 -293.94,-0.01"/>
      <path id="path280" style="fill:#bb8a3a;fill-opacity:1;fill-rule:nonzero;stroke:none" d="m 6334.76,4899.69 c -845.1,0 -702.81,-964.45 -557.38,-964.45 37.09,0 11.69,485.32 79.72,476.5 68.02,-8.83 188.12,-38.41 477.66,-38.41 289.54,0 409.64,29.58 477.66,38.41 68.03,8.82 42.63,-476.5 79.72,-476.5 145.44,0 287.72,964.45 -557.38,964.45"/>
      <path id="path282" style="fill:#fbc68b;fill-opacity:1;fill-rule:nonzero;stroke:none" d="m 1543.09,765.301 293.941,0 0,329.219 -293.941,0 0,-329.219 z"/>
      <path id="path284" style="fill:#f9b271;fill-opacity:1;fill-rule:nonzero;stroke:none" d="m 1543.09,1055.74 c 0,0 123.65,-78.74 293.94,-60.502 l 0,99.282 -293.94,0 0,-38.78"/>
      <path id="path286" style="fill:#f9b271;fill-opacity:1;fill-rule:nonzero;stroke:none" d="m 1262.65,1605.02 c 0,-90.38 -64.21,-163.64 -143.43,-163.64 -79.21,0 -143.431,73.26 -143.431,163.64 0,90.37 64.221,163.64 143.431,163.64 79.22,0 143.43,-73.27 143.43,-163.64"/>
      <path id="path288" style="fill:#f9b271;fill-opacity:1;fill-rule:nonzero;stroke:none" d="m 2404.33,1605.02 c 0,-90.38 -64.21,-163.64 -143.43,-163.64 -79.22,0 -143.43,73.26 -143.43,163.64 0,90.37 64.21,163.64 143.43,163.64 79.22,0 143.43,-73.27 143.43,-163.64"/>
      <path id="path290" style="fill:#fbc68b;fill-opacity:1;fill-rule:nonzero;stroke:none" d="m 2260.32,1917.58 c 0,241.03 -176.37,417.4 -570.26,417.4 -393.89,0 -570.26,-176.37 -570.26,-417.4 0,-241.04 -41.15,-875.97 570.26,-875.97 611.41,0 570.26,634.93 570.26,875.97"/>
      <path id="path292" style="fill:#342019;fill-opacity:1;fill-rule:nonzero;stroke:none" d="m 1474.04,1644.2 c 0,-37.34 -27.64,-67.61 -61.73,-67.61 -34.09,0 -61.73,30.27 -61.73,67.61 0,37.34 27.64,67.61 61.73,67.61 34.09,0 61.73,-30.27 61.73,-67.61"/>
      <path id="path294" style="fill:#ffffff;fill-opacity:1;fill-rule:nonzero;stroke:none" d="m 1403.86,1674.06 c 0,-10.2 -8.27,-18.47 -18.47,-18.47 -10.19,0 -18.46,8.27 -18.46,18.47 0,10.19 8.27,18.46 18.46,18.46 10.2,0 18.47,-8.27 18.47,-18.46"/>
      <path id="path296" style="fill:#823c1b;fill-opacity:1;fill-rule:nonzero;stroke:none" d="m 1313.55,1811.75 c 29.19,-14.59 76.06,49.61 183.35,-6.24 19.56,-10.18 31.24,87.08 -83.77,87.08 -99.58,0 -117.21,-72.02 -99.58,-80.84"/>
      <path id="path298" style="fill:#342019;fill-opacity:1;fill-rule:nonzero;stroke:none" d="m 2037.17,1644.2 c 0,-37.34 -27.63,-67.61 -61.72,-67.61 -34.1,0 -61.73,30.27 -61.73,67.61 0,37.34 27.63,67.61 61.73,67.61 34.09,0 61.72,-30.27 61.72,-67.61"/>
      <path id="path300" style="fill:#ffffff;fill-opacity:1;fill-rule:nonzero;stroke:none" d="m 1966.99,1674.06 c 0,-10.2 -8.26,-18.47 -18.46,-18.47 -10.2,0 -18.46,8.27 -18.46,18.47 0,10.19 8.26,18.46 18.46,18.46 10.2,0 18.46,-8.27 18.46,-18.46"/>
      <path id="path302" style="fill:#823c1b;fill-opacity:1;fill-rule:nonzero;stroke:none" d="m 2066.57,1811.75 c -29.19,-14.59 -76.06,49.61 -183.35,-6.24 -19.56,-10.18 -31.23,87.08 83.77,87.08 99.58,0 117.22,-72.02 99.58,-80.84"/>
      <path id="path304" style="fill:#f9b271;fill-opacity:1;fill-rule:nonzero;stroke:none" d="m 1690.06,1406.4 c -60.99,0 -97.74,45.56 -97.74,23.52 0,-22.05 17.64,-63.94 97.74,-63.94 80.1,0 97.74,41.89 97.74,63.94 0,22.04 -36.75,-23.52 -97.74,-23.52"/>
      <path id="path306" style="fill:#f9b271;fill-opacity:1;fill-rule:nonzero;stroke:none" d="m 1690.06,1203.69 c -21.09,0 -33.8,15.76 -33.8,8.13 0,-7.62 6.1,-22.11 33.8,-22.11 27.71,0 33.81,14.49 33.81,22.11 0,7.63 -12.71,-8.13 -33.81,-8.13"/>
      <path id="path308" style="fill:#f6834c;fill-opacity:1;fill-rule:nonzero;stroke:none" d="m 1690.06,1259.87 c -96.68,0 -154.93,39.36 -154.93,29.39 0,-9.97 27.96,-49.24 154.93,-49.24 126.97,0 154.93,39.27 154.93,49.24 0,9.97 -58.25,-29.39 -154.93,-29.39"/>
      <path id="path310" style="fill:#d38154;fill-opacity:1;fill-rule:nonzero;stroke:none" d="m 1690.06,962.242 0,-370.371 -714.271,0 c 0,149.91 376.231,370.371 714.271,370.371"/>
      <path id="path312" style="fill:#d38154;fill-opacity:1;fill-rule:nonzero;stroke:none" d="m 1690.06,962.242 0,-370.371 714.28,0 c 0,149.91 -376.24,370.371 -714.28,370.371"/>
      <path id="path314" style="fill:#bd744d;fill-opacity:1;fill-rule:nonzero;stroke:none" d="m 1690.06,962.242 c -71.9,0 -145.52,-10.051 -216.89,-27.203 0.48,-0.617 79.16,-102.129 216.89,-102.129 127.55,0 212.33,86.93 224.62,100.301 -73.77,18.301 -150.12,29.031 -224.62,29.031"/>
      <path id="path316" style="fill:#fbc68b;fill-opacity:1;fill-rule:nonzero;stroke:none" d="m 1543.09,949.422 c 0,0 42.99,-53.32 146.97,-53.32 103.98,0 146.97,53.328 146.97,53.328 0,0 -152.48,55.51 -293.94,-0.008"/>
      <path id="path318" style="fill:#823c1b;fill-opacity:1;fill-rule:nonzero;stroke:none" d="m 1690.06,1167.27 0,-136.68 c -307.18,0 -408.58,163.78 -438.61,209.43 -22.27,33.86 144.52,-119.05 291.64,-119.05 64.66,0 61.73,46.3 146.97,46.3"/>
      <path id="path320" style="fill:#823c1b;fill-opacity:1;fill-rule:nonzero;stroke:none" d="m 1690.06,1167.27 0,-136.68 c 307.18,0 408.58,163.78 438.61,209.43 22.27,33.86 -144.52,-119.05 -291.64,-119.05 -64.66,0 -61.72,46.3 -146.97,46.3"/>
      <path id="path322" style="fill:#823c1b;fill-opacity:1;fill-rule:nonzero;stroke:none" d="m 1693.93,2076.31 0,482.07 c -503.58,0 -597.65,-188.13 -621.16,-540.86 -23.52,-352.74 29.58,-474.17 64.76,-473.72 35.18,0.46 16.27,404.4 64.58,491.35 88.18,158.74 245.83,41.16 491.82,41.16"/>
      <path id="path324" style="fill:#823c1b;fill-opacity:1;fill-rule:nonzero;stroke:none" d="m 1693.93,2076.31 0,482.07 c 503.57,0 597.64,-188.13 621.15,-540.86 23.52,-352.74 -29.57,-474.17 -64.76,-473.72 -35.18,0.46 -16.27,404.4 -64.57,491.35 -88.19,158.74 -245.83,41.16 -491.82,41.16"/>
      <path id="path326" style="fill:#6e4121;fill-opacity:1;fill-rule:nonzero;stroke:none" d="M 1376.94,907.289 C 1154.88,832.27 975.789,695.301 975.789,591.871 l 401.171,0 0,315.418 -0.02,0"/>
      <path id="path328" style="fill:#502e18;fill-opacity:1;fill-rule:nonzero;stroke:none" d="m 1398.32,591.871 0,338.039 c 0,0 -57.32,-22.051 -77.16,-32.34 l -58.51,-305.699 135.67,0"/>
      <path id="path330" style="fill:#6e4121;fill-opacity:1;fill-rule:nonzero;stroke:none" d="m 2003.18,907.289 c 222.07,-75.019 401.16,-211.988 401.16,-315.418 l -401.18,0 0,315.418 0.02,0"/>
      <path id="path332" style="fill:#502e18;fill-opacity:1;fill-rule:nonzero;stroke:none" d="m 1981.81,591.871 0,338.039 c 0,0 57.32,-22.051 77.16,-32.34 l 58.5,-305.699 -135.66,0"/>
      <path id="path334" style="fill:#fbc68b;fill-opacity:1;fill-rule:nonzero;stroke:none" d="m 6187.79,765.301 293.941,0 0,329.219 -293.941,0 0,-329.219 z"/>
      <path id="path336" style="fill:#f9b271;fill-opacity:1;fill-rule:nonzero;stroke:none" d="m 6187.79,1055.74 c 0,0 123.65,-78.74 293.94,-60.502 l 0,99.282 -293.94,0 0,-38.78"/>
      <path id="path338" style="fill:#f9b271;fill-opacity:1;fill-rule:nonzero;stroke:none" d="m 5907.35,1605.02 c 0,-90.38 -64.21,-163.64 -143.43,-163.64 -79.22,0 -143.43,73.26 -143.43,163.64 0,90.37 64.21,163.64 143.43,163.64 79.22,0 143.43,-73.27 143.43,-163.64"/>
      <path id="path340" style="fill:#f9b271;fill-opacity:1;fill-rule:nonzero;stroke:none" d="m 7049.03,1605.02 c 0,-90.38 -64.21,-163.64 -143.43,-163.64 -79.22,0 -143.43,73.26 -143.43,163.64 0,90.37 64.21,163.64 143.43,163.64 79.22,0 143.43,-73.27 143.43,-163.64"/>
      <path id="path342" style="fill:#fbc68b;fill-opacity:1;fill-rule:nonzero;stroke:none" d="m 6905.02,1917.58 c 0,241.03 -176.37,417.4 -570.26,417.4 -393.89,0 -570.26,-176.37 -570.26,-417.4 0,-241.04 -41.15,-875.97 570.26,-875.97 611.41,0 570.26,634.93 570.26,875.97"/>
      <path id="path344" style="fill:#342019;fill-opacity:1;fill-rule:nonzero;stroke:none" d="m 6118.73,1644.2 c 0,-37.34 -27.63,-67.61 -61.72,-67.61 -34.1,0 -61.73,30.27 -61.73,67.61 0,37.34 27.63,67.61 61.73,67.61 34.09,0 61.72,-30.27 61.72,-67.61"/>
      <path id="path346" style="fill:#ffffff;fill-opacity:1;fill-rule:nonzero;stroke:none" d="m 6048.55,1674.06 c 0,-10.2 -8.26,-18.47 -18.46,-18.47 -10.2,0 -18.46,8.27 -18.46,18.47 0,10.19 8.26,18.46 18.46,18.46 10.2,0 18.46,-8.27 18.46,-18.46"/>
      <path id="path348" style="fill:#45271b;fill-opacity:1;fill-rule:nonzero;stroke:none" d="m 5958.25,1811.75 c 29.19,-14.59 76.06,49.61 183.35,-6.24 19.56,-10.18 31.24,87.08 -83.77,87.08 -99.58,0 -117.21,-72.02 -99.58,-80.84"/>
      <path id="path350" style="fill:#342019;fill-opacity:1;fill-rule:nonzero;stroke:none" d="m 6681.87,1644.2 c 0,-37.34 -27.63,-67.61 -61.73,-67.61 -34.09,0 -61.73,30.27 -61.73,67.61 0,37.34 27.64,67.61 61.73,67.61 34.1,0 61.73,-30.27 61.73,-67.61"/>
      <path id="path352" style="fill:#ffffff;fill-opacity:1;fill-rule:nonzero;stroke:none" d="m 6611.69,1674.06 c 0,-10.2 -8.26,-18.47 -18.46,-18.47 -10.2,0 -18.46,8.27 -18.46,18.47 0,10.19 8.26,18.46 18.46,18.46 10.2,0 18.46,-8.27 18.46,-18.46"/>
      <path id="path354" style="fill:#45271b;fill-opacity:1;fill-rule:nonzero;stroke:none" d="m 6711.27,1811.75 c -29.19,-14.59 -76.06,49.61 -183.35,-6.24 -19.56,-10.18 -31.23,87.08 83.77,87.08 99.58,0 117.22,-72.02 99.58,-80.84"/>
      <path id="path356" style="fill:#f9b271;fill-opacity:1;fill-rule:nonzero;stroke:none" d="m 6334.76,1406.4 c -60.99,0 -97.74,45.56 -97.74,23.52 0,-22.05 17.64,-63.94 97.74,-63.94 80.1,0 97.74,41.89 97.74,63.94 0,22.04 -36.75,-23.52 -97.74,-23.52"/>
      <path id="path358" style="fill:#f9b271;fill-opacity:1;fill-rule:nonzero;stroke:none" d="m 6334.76,1203.69 c -21.09,0 -33.8,15.76 -33.8,8.13 0,-7.62 6.1,-22.11 33.8,-22.11 27.71,0 33.81,14.49 33.81,22.11 0,7.63 -12.71,-8.13 -33.81,-8.13"/>
      <path id="path360" style="fill:#f6834c;fill-opacity:1;fill-rule:nonzero;stroke:none" d="m 6334.76,1259.87 c -96.68,0 -154.93,39.36 -154.93,29.39 0,-9.97 27.96,-49.24 154.93,-49.24 126.97,0 154.93,39.27 154.93,49.24 0,9.97 -58.25,-29.39 -154.93,-29.39"/>
      <path id="path362" style="fill:#f78fb9;fill-opacity:1;fill-rule:nonzero;stroke:none" d="m 6334.76,962.242 0,-370.371 -714.27,0 c 0,149.91 376.23,370.371 714.27,370.371"/>
      <path id="path364" style="fill:#f78fb9;fill-opacity:1;fill-rule:nonzero;stroke:none" d="m 6334.76,962.242 0,-370.371 714.27,0 c 0,149.91 -376.23,370.371 -714.27,370.371"/>
      <path id="path366" style="fill:#fbc68b;fill-opacity:1;fill-rule:nonzero;stroke:none" d="m 6187.79,949.422 c 0,0 42.99,-53.32 146.97,-53.32 103.98,0 146.97,53.328 146.97,53.328 0,0 -152.48,55.51 -293.94,-0.008"/>
      <path id="path368" style="fill:#5f504c;fill-opacity:1;fill-rule:nonzero;stroke:none" d="m 6127.53,591.871 -30.41,338.039 c 0,0 -64.56,8.91 -142.14,-47.461 l -64.45,-290.578 237,0"/>
      <path id="path370" style="fill:#5f504c;fill-opacity:1;fill-rule:nonzero;stroke:none" d="m 6334.76,896.102 0,-304.231 -101.41,0 19.84,139.988 -58.42,61.731 139.99,102.512"/>
      <path id="path372" style="fill:#5f504c;fill-opacity:1;fill-rule:nonzero;stroke:none" d="m 6541.99,591.871 30.41,338.039 c 0,0 64.55,8.91 142.14,-47.461 l 64.45,-290.578 -237,0"/>
      <path id="path374" style="fill:#5f504c;fill-opacity:1;fill-rule:nonzero;stroke:none" d="m 6334.76,896.102 0,-304.231 101.41,0 -19.84,139.988 58.42,61.731 -139.99,102.512"/>
      <path id="path376" style="fill:#f2588c;fill-opacity:1;fill-rule:nonzero;stroke:none" d="m 6481.73,985.762 -146.97,-89.66 154.93,-154.321 115.1,179.121 c 0,0 -75.29,74.078 -123.06,64.86"/>
      <path id="path378" style="fill:#f2588c;fill-opacity:1;fill-rule:nonzero;stroke:none" d="m 6187.79,985.762 146.97,-89.66 -154.93,-154.321 -115.09,179.121 c 0,0 75.28,74.078 123.05,64.86"/>
      <path id="path380" style="fill:#45271b;fill-opacity:1;fill-rule:nonzero;stroke:none" d="m 6965.28,2336.45 c -13.84,27.27 -52.91,30.87 -73.48,42.63 -20.59,11.75 -20.59,61.73 -58.8,82.3 -38.21,20.58 -44.09,-11.76 -70.83,-5.88 -26.75,5.88 -52.63,58.79 -87.93,70.55 -35.3,11.76 -67.58,-11.76 -94.03,-5.88 -26.46,5.88 -44.1,61.73 -90.52,58.79 -46.43,-2.94 -47.63,-35.27 -57.19,-32.33 -9.56,2.93 -40.42,76.42 -97.74,76.42 -57.32,0 -88.18,-73.49 -97.74,-76.42 -9.55,-2.94 -10.76,29.39 -57.18,32.33 -46.43,2.94 -64.07,-52.91 -90.52,-58.79 -26.46,-5.88 -58.74,17.64 -94.04,5.88 -35.3,-11.76 -61.18,-64.67 -87.93,-70.55 -26.74,-5.88 -32.62,26.46 -70.83,5.88 -38.21,-20.57 -38.21,-70.55 -58.79,-82.3 -20.58,-11.76 -59.65,-15.36 -73.49,-42.63 -49.97,-98.47 39.44,-792.98 78,-792.98 38.55,0 16.07,353.53 74.86,488.74 58.78,135.22 285.13,17.64 477.66,17.64 192.53,0 418.88,117.58 477.67,-17.64 58.78,-135.21 36.3,-488.74 74.85,-488.74 38.56,0 127.97,694.51 78,792.98"/>
      <path id="path382" style="fill:#fbc68b;fill-opacity:1;fill-rule:nonzero;stroke:none" d="m 3864.7,765.301 293.949,0 0,329.219 -293.949,0 0,-329.219 z"/>
      <path id="path384" style="fill:#f9b271;fill-opacity:1;fill-rule:nonzero;stroke:none" d="m 3864.7,1055.74 c 0,0 123.65,-78.74 293.95,-60.502 l 0,99.282 -293.95,0 0,-38.78"/>
      <path id="path386" style="fill:#f9b271;fill-opacity:1;fill-rule:nonzero;stroke:none" d="m 3584.27,1605.02 c 0,-90.38 -64.22,-163.64 -143.43,-163.64 -79.22,0 -143.44,73.26 -143.44,163.64 0,90.37 64.22,163.64 143.44,163.64 79.21,0 143.43,-73.27 143.43,-163.64"/>
      <path id="path388" style="fill:#f9b271;fill-opacity:1;fill-rule:nonzero;stroke:none" d="m 4725.95,1605.02 c 0,-90.38 -64.22,-163.64 -143.43,-163.64 -79.22,0 -143.44,73.26 -143.44,163.64 0,90.37 64.22,163.64 143.44,163.64 79.21,0 143.43,-73.27 143.43,-163.64"/>
      <path id="path390" style="fill:#fbc68b;fill-opacity:1;fill-rule:nonzero;stroke:none" d="m 4581.94,1917.58 c 0,241.03 -176.37,417.4 -570.26,417.4 -393.89,0 -570.26,-176.37 -570.26,-417.4 0,-241.04 -41.16,-875.97 570.26,-875.97 611.41,0 570.26,634.93 570.26,875.97"/>
      <path id="path392" style="fill:#342019;fill-opacity:1;fill-rule:nonzero;stroke:none" d="m 3795.65,1644.2 c 0,-37.34 -27.64,-67.61 -61.73,-67.61 -34.09,0 -61.73,30.27 -61.73,67.61 0,37.34 27.64,67.61 61.73,67.61 34.09,0 61.73,-30.27 61.73,-67.61"/>
      <path id="path394" style="fill:#ffffff;fill-opacity:1;fill-rule:nonzero;stroke:none" d="m 3725.47,1674.06 c 0,-10.2 -8.27,-18.47 -18.46,-18.47 -10.2,0 -18.47,8.27 -18.47,18.47 0,10.19 8.27,18.46 18.47,18.46 10.19,0 18.46,-8.27 18.46,-18.46"/>
      <path id="path396" style="fill:#301e1b;fill-opacity:1;fill-rule:nonzero;stroke:none" d="m 3635.17,1811.75 c 29.19,-14.59 76.06,49.61 183.35,-6.24 19.55,-10.18 31.23,87.08 -83.78,87.08 -99.57,0 -117.21,-72.02 -99.57,-80.84"/>
      <path id="path398" style="fill:#342019;fill-opacity:1;fill-rule:nonzero;stroke:none" d="m 4358.79,1644.2 c 0,-37.34 -27.64,-67.61 -61.73,-67.61 -34.09,0 -61.73,30.27 -61.73,67.61 0,37.34 27.64,67.61 61.73,67.61 34.09,0 61.73,-30.27 61.73,-67.61"/>
      <path id="path400" style="fill:#ffffff;fill-opacity:1;fill-rule:nonzero;stroke:none" d="m 4288.61,1674.06 c 0,-10.2 -8.27,-18.47 -18.46,-18.47 -10.2,0 -18.47,8.27 -18.47,18.47 0,10.19 8.27,18.46 18.47,18.46 10.19,0 18.46,-8.27 18.46,-18.46"/>
      <path id="path402" style="fill:#301e1b;fill-opacity:1;fill-rule:nonzero;stroke:none" d="m 4388.18,1811.75 c -29.18,-14.59 -76.05,49.61 -183.35,-6.24 -19.55,-10.18 -31.23,87.08 83.78,87.08 99.57,0 117.21,-72.02 99.57,-80.84"/>
      <path id="path404" style="fill:#f9b271;fill-opacity:1;fill-rule:nonzero;stroke:none" d="m 4011.68,1406.4 c -61,0 -97.74,45.56 -97.74,23.52 0,-22.05 17.64,-63.94 97.74,-63.94 80.1,0 97.74,41.89 97.74,63.94 0,22.04 -36.75,-23.52 -97.74,-23.52"/>
      <path id="path406" style="fill:#f9b271;fill-opacity:1;fill-rule:nonzero;stroke:none" d="m 4011.68,1203.69 c -21.1,0 -33.81,15.76 -33.81,8.13 0,-7.62 6.1,-22.11 33.81,-22.11 27.7,0 33.8,14.49 33.8,22.11 0,7.63 -12.71,-8.13 -33.8,-8.13"/>
      <path id="path408" style="fill:#f6834c;fill-opacity:1;fill-rule:nonzero;stroke:none" d="m 4011.68,1259.87 c -96.68,0 -154.93,39.36 -154.93,29.39 0,-9.97 27.95,-49.24 154.93,-49.24 126.97,0 154.93,39.27 154.93,49.24 0,9.97 -58.25,-29.39 -154.93,-29.39"/>
      <path id="path410" style="fill:#96275c;fill-opacity:1;fill-rule:nonzero;stroke:none" d="m 4011.68,962.242 0,-370.371 714.27,0 c 0,149.91 -376.23,370.371 -714.27,370.371"/>
      <path id="path412" style="fill:#96275c;fill-opacity:1;fill-rule:nonzero;stroke:none" d="m 4011.68,962.242 0,-370.371 -714.28,0 c 0,149.91 376.24,370.371 714.28,370.371"/>
      <path id="path414" style="fill:#c03b6f;fill-opacity:1;fill-rule:nonzero;stroke:none" d="m 4014.31,962.242 c -71.91,0 -145.52,-10.051 -216.9,-27.203 0.49,-0.617 79.17,-102.129 216.9,-102.129 127.54,0 212.32,86.93 224.62,100.301 -73.78,18.301 -150.12,29.031 -224.62,29.031"/>
      <path id="path416" style="fill:#fbc68b;fill-opacity:1;fill-rule:nonzero;stroke:none" d="m 3864.7,949.422 c 0,0 42.99,-58.902 146.98,-58.902 103.98,0 146.97,58.91 146.97,58.91 0,0 -152.48,55.51 -293.95,-0.008"/>
      <path id="path418" style="fill:#c03b6f;fill-opacity:1;fill-rule:nonzero;stroke:none" d="m 3718.86,913.879 c -12.44,-3.938 -24.75,-8.098 -36.93,-12.43 l 0,-309.578 36.93,0 0,322.008"/>
      <path id="path420" style="fill:#c03b6f;fill-opacity:1;fill-rule:nonzero;stroke:none" d="m 3577.66,591.871 87.92,0 0,303.738 c -30.42,-11.339 -59.83,-23.796 -87.92,-37.109 l 0,-266.629"/>
      <path id="path422" style="fill:#c03b6f;fill-opacity:1;fill-rule:nonzero;stroke:none" d="m 4304.29,913.879 c 12.44,-3.938 24.74,-8.098 36.92,-12.43 l 0,-309.578 -36.92,0 0,322.008"/>
      <path id="path424" style="fill:#c03b6f;fill-opacity:1;fill-rule:nonzero;stroke:none" d="m 4445.49,591.871 -87.92,0 0,303.738 c 30.41,-11.339 59.82,-23.796 87.92,-37.109 l 0,-266.629"/>
      <path id="path426" style="fill:#2e211d;fill-opacity:1;fill-rule:nonzero;stroke:none" d="m 3369.4,2060.96 c 32.34,375.81 338.04,538.87 642.28,538.87 304.23,0 609.94,-163.06 642.27,-538.87 32.34,-375.81 -64.66,-673.97 -116.95,-637.85 -52.27,36.11 27.66,526.95 -135.26,496.23 -257.2,-48.5 -689.89,165.35 -689.89,165.35 0,0 1.23,-128.32 -100.31,-192.1 -197.31,-123.93 -72.91,-433.37 -125.19,-469.48 -52.28,-36.12 -149.28,262.04 -116.95,637.85"/>
      <path id="path428" style="fill:#2e211d;fill-opacity:1;fill-rule:nonzero;stroke:none" d="m 4014.98,1133.03 0,-125.3 c -163.14,0 -255.02,60.04 -264.93,86.79 -9.91,26.75 75.34,-14.99 117.96,0 42.62,14.99 74.96,38.51 146.97,38.51"/>
      <path id="path430" style="fill:#2e211d;fill-opacity:1;fill-rule:nonzero;stroke:none" d="m 4011.68,1133.03 0,-125.3 c 163.14,0 255.02,60.04 264.93,86.79 9.91,26.75 -75.34,-14.99 -117.96,0 -42.62,14.99 -74.95,38.51 -146.97,38.51"/>
      <path id="path432" style="fill:#4b3833;fill-opacity:1;fill-rule:nonzero;stroke:none" d="m 4028.32,5585.45 0,233.11 c 0,0 370.02,11.21 370.02,-212.75 l -370.02,-20.36"/>
      <path id="path434" style="fill:#4b3833;fill-opacity:1;fill-rule:nonzero;stroke:none" d="m 3996.62,5585.45 0,233.11 c 0,0 -370.02,11.21 -370.02,-212.75 l 370.02,-20.36"/>
      <path id="path436" style="fill:#fbc68b;fill-opacity:1;fill-rule:nonzero;stroke:none" d="m 3864.7,5489.35 293.949,0 0,329.219 -293.949,0 0,-329.219 z"/>
      <path id="path438" style="fill:#f9b271;fill-opacity:1;fill-rule:nonzero;stroke:none" d="m 3864.7,5779.8 c 0,0 123.65,-78.75 293.95,-60.51 l 0,99.28 -293.95,0 0,-38.77"/>
      <path id="path440" style="fill:#f9b271;fill-opacity:1;fill-rule:nonzero;stroke:none" d="m 3584.27,6329.07 c 0,-90.37 -64.22,-163.64 -143.43,-163.64 -79.22,0 -143.44,73.27 -143.44,163.64 0,90.38 64.22,163.64 143.44,163.64 79.21,0 143.43,-73.26 143.43,-163.64"/>
      <path id="path442" style="fill:#f9b271;fill-opacity:1;fill-rule:nonzero;stroke:none" d="m 4725.95,6329.07 c 0,-90.37 -64.22,-163.64 -143.44,-163.64 -79.21,0 -143.43,73.27 -143.43,163.64 0,90.38 64.22,163.64 143.43,163.64 79.22,0 143.44,-73.26 143.44,-163.64"/>
      <path id="path444" style="fill:#fbc68b;fill-opacity:1;fill-rule:nonzero;stroke:none" d="m 4581.94,6641.63 c 0,241.04 -176.37,417.41 -570.26,417.41 -393.9,0 -570.26,-176.37 -570.26,-417.41 0,-241.04 -41.16,-875.97 570.26,-875.97 611.41,0 570.26,634.93 570.26,875.97"/>
      <path id="path446" style="fill:#342019;fill-opacity:1;fill-rule:nonzero;stroke:none" d="m 3795.65,6368.26 c 0,-37.34 -27.64,-67.61 -61.73,-67.61 -34.09,0 -61.73,30.27 -61.73,67.61 0,37.34 27.64,67.61 61.73,67.61 34.09,0 61.73,-30.27 61.73,-67.61"/>
      <path id="path448" style="fill:#ffffff;fill-opacity:1;fill-rule:nonzero;stroke:none" d="m 3725.47,6398.11 c 0,-10.2 -8.27,-18.46 -18.46,-18.46 -10.2,0 -18.47,8.26 -18.47,18.46 0,10.2 8.27,18.47 18.47,18.47 10.19,0 18.46,-8.27 18.46,-18.47"/>
      <path id="path450" style="fill:#371a14;fill-opacity:1;fill-rule:nonzero;stroke:none" d="m 3635.17,6535.81 c 29.19,-14.6 76.06,49.6 183.35,-6.25 19.55,-10.18 31.23,87.08 -83.78,87.08 -99.57,0 -117.21,-72.01 -99.57,-80.83"/>
      <path id="path452" style="fill:#342019;fill-opacity:1;fill-rule:nonzero;stroke:none" d="m 4358.79,6368.26 c 0,-37.34 -27.64,-67.61 -61.73,-67.61 -34.09,0 -61.73,30.27 -61.73,67.61 0,37.34 27.64,67.61 61.73,67.61 34.09,0 61.73,-30.27 61.73,-67.61"/>
      <path id="path454" style="fill:#ffffff;fill-opacity:1;fill-rule:nonzero;stroke:none" d="m 4288.61,6398.11 c 0,-10.2 -8.27,-18.46 -18.47,-18.46 -10.19,0 -18.46,8.26 -18.46,18.46 0,10.2 8.27,18.47 18.46,18.47 10.2,0 18.47,-8.27 18.47,-18.47"/>
      <path id="path456" style="fill:#371a14;fill-opacity:1;fill-rule:nonzero;stroke:none" d="m 4388.18,6535.81 c -29.18,-14.6 -76.06,49.6 -183.35,-6.25 -19.55,-10.18 -31.23,87.08 83.78,87.08 99.57,0 117.21,-72.01 99.57,-80.83"/>
      <path id="path458" style="fill:#f9b271;fill-opacity:1;fill-rule:nonzero;stroke:none" d="m 4011.68,6130.46 c -61,0 -97.74,45.56 -97.74,23.51 0,-22.05 17.63,-63.93 97.74,-63.93 80.1,0 97.74,41.88 97.74,63.93 0,22.05 -36.75,-23.51 -97.74,-23.51"/>
      <path id="path460" style="fill:#f9b271;fill-opacity:1;fill-rule:nonzero;stroke:none" d="m 4011.68,5927.75 c -21.1,0 -33.81,15.76 -33.81,8.13 0,-7.63 6.1,-22.11 33.81,-22.11 27.7,0 33.8,14.48 33.8,22.11 0,7.63 -12.71,-8.13 -33.8,-8.13"/>
      <path id="path462" style="fill:#f6834c;fill-opacity:1;fill-rule:nonzero;stroke:none" d="m 4011.68,5983.92 c -96.68,0 -154.93,39.37 -154.93,29.39 0,-9.97 27.95,-49.23 154.93,-49.23 126.97,0 154.92,39.26 154.92,49.23 0,9.98 -58.24,-29.39 -154.92,-29.39"/>
      <path id="path464" style="fill:#7a5c55;fill-opacity:1;fill-rule:nonzero;stroke:none" d="m 4011.68,5686.3 0,-370.38 -714.28,0 c 0,149.92 376.24,370.38 714.28,370.38"/>
      <path id="path466" style="fill:#7a5c55;fill-opacity:1;fill-rule:nonzero;stroke:none" d="m 4011.68,5686.3 0,-370.38 714.27,0 c 0,149.92 -376.23,370.38 -714.27,370.38"/>
      <path id="path468" style="fill:#8e461f;fill-opacity:1;fill-rule:nonzero;stroke:none" d="m 4013.26,5315.92 -230.5,262.65 81.94,-22.05 148.56,-55.41 0,-185.19"/>
      <path id="path470" style="fill:#8e461f;fill-opacity:1;fill-rule:nonzero;stroke:none" d="m 4011.68,5315.92 230.5,262.65 -81.94,-22.05 -148.56,-55.41 0,-185.19"/>
      <path id="path472" style="fill:#562a15;fill-opacity:1;fill-rule:nonzero;stroke:none" d="m 4008.37,5686.3 c -77.56,0 -157.1,-11.71 -233.68,-31.41 16.91,-66.6 69.48,-170.29 233.68,-170.29 164.19,0 216.77,103.68 233.68,170.29 -76.58,19.7 -156.12,31.41 -233.68,31.41"/>
      <path id="path474" style="fill:#fbc68b;fill-opacity:1;fill-rule:nonzero;stroke:none" d="m 3864.7,5673.48 c 0,0 0,-136.8 146.98,-136.8 146.97,0 146.97,136.8 146.97,136.8 0,0 -152.48,55.52 -293.95,0"/>
      <path id="path476" style="fill:#371a14;fill-opacity:1;fill-rule:nonzero;stroke:none" d="m 4839.14,6730.64 c 70.55,60.54 0,153.68 0,153.68 44.09,107.1 -52.91,162.98 -52.91,162.98 8.82,116.42 -92.59,135.05 -92.59,135.05 -17.64,107.1 -111.12,102.45 -111.12,102.45 -40.58,116.41 -143.44,97.79 -143.44,97.79 -38.5,97.79 -149.65,65.2 -149.65,65.2 -64.69,83.82 -154.95,13.96 -154.95,13.96 -8.01,37.26 -44.91,74.51 -122.8,74.51 -77.9,0 -114.8,-37.25 -122.8,-74.51 0,0 -90.26,69.86 -154.96,-13.96 0,0 -111.15,32.59 -149.65,-65.2 0,0 -102.86,18.62 -143.43,-97.79 0,0 -93.49,4.65 -111.13,-102.45 0,0 -101.41,-18.63 -92.59,-135.05 0,0 -97,-55.88 -52.91,-162.98 0,0 -70.55,-93.14 0,-153.68 0,0 -101.41,-93.01 -8.82,-172.24 -66.14,-138.03 44.09,-210.95 44.09,-210.95 -44.09,-155.01 101.42,-186.8 101.42,-186.8 4.77,-101.62 119.94,-114.55 119.94,-114.55 0,0 25.56,-74.51 100.16,-30.43 74.6,44.09 -30.51,202.73 -30.51,202.73 61.73,69.85 0,182.47 0,182.47 69.66,53.41 0,157.53 0,157.53 92.6,9.38 73.78,130.33 73.78,130.33 91.41,-18.63 141.2,80.2 141.2,80.2 104.75,-45.53 163.41,26.91 163.41,26.91 87.37,-60.54 122.8,0 122.8,0 0,0 35.43,-60.54 122.8,0 0,0 58.66,-72.44 163.4,-26.91 0,0 49.79,-98.83 141.2,-80.2 0,0 -18.81,-120.95 73.78,-130.33 0,0 -69.66,-104.12 0,-157.53 0,0 -61.73,-112.62 0,-182.47 0,0 -105.11,-158.64 -30.51,-202.73 74.6,-44.08 100.17,30.43 100.17,30.43 0,0 115.16,12.93 119.94,114.55 0,0 145.5,31.79 101.41,186.8 0,0 110.23,72.92 44.09,210.95 92.59,79.23 -8.82,172.24 -8.82,172.24"/>
      <path id="path478" style="fill:#5a433e;fill-opacity:1;fill-rule:nonzero;stroke:none" d="m 3787.54,5658.67 c 4.4,28.61 -171.2,7.52 -169.76,-73.22 1.45,-80.74 194.01,-142.83 246.92,-172.23 52.91,-29.39 146.98,-97.3 146.98,-97.3 0,0 17.63,68.2 -64.67,120.82 -82.31,52.61 -165.35,183.71 -159.47,221.93"/>
      <path id="path480" style="fill:#5a433e;fill-opacity:1;fill-rule:nonzero;stroke:none" d="m 4237.4,5658.67 c -4.4,28.61 171.2,7.52 169.75,-73.22 -1.44,-80.74 -194,-142.83 -246.92,-172.23 -52.91,-29.39 -148.55,-97.3 -148.55,-97.3 0,0 -16.05,68.2 66.25,120.82 82.31,52.61 165.35,183.71 159.47,221.93"/>
      <path id="path482" style="fill:#55c3f1;fill-opacity:1;fill-rule:nonzero;stroke:none" d="m 4833.25,3911.91 c 0,-483.85 -392.24,-876.09 -876.09,-876.09 -483.85,0 -876.09,392.24 -876.09,876.09 0,483.85 392.24,876.09 876.09,876.09 483.85,0 876.09,-392.24 876.09,-876.09"/>
      <g transform="scale(10,10)" id="g484">
        <text id="text486" style="font-variant:normal;font-weight:normal;font-size:46.88959885px;font-family:Bebas;-inkscape-font-specification:Bebas;writing-mode:lr-tb;fill:#ffffff;fill-opacity:1;fill-rule:nonzero;stroke:none" transform="matrix(1,0,0,-1,345.888,396.39)">useravatar</text>
      </g>
    </g>
  </g>
</svg>