<?xml version="1.0" encoding="utf-8"?>
<svg id="svg2" width="1066.6667" height="1066.6667" viewBox="593 140 122 362" xmlns="http://www.w3.org/2000/svg" xmlns:bx="https://boxy-svg.com">
  <g transform="matrix(1.333333, 0, 0, -1.333333, -224.41304, 1083.691162)" id="g10">
    <g id="g14">
      <g id="g16" style="clip-path: url(#clipPath20);">
        <g transform="translate(283.3916,59.1387)" id="g22"/>
        <g transform="translate(294.8545,59.9551)" id="g26"/>
        <g transform="translate(311.7412,57.2402)" id="g30"/>
        <g transform="translate(315.6729,62.9199)" id="g34"/>
        <g transform="translate(319.5186,59.2051)" id="g38"/>
        <g transform="translate(331.1523,62.957)" id="g42"/>
        <g transform="translate(341.8555,59.9551)" id="g46"/>
        <g transform="translate(352.3965,59.1387)" id="g50"/>
        <g transform="translate(368.2187,59.0625)" id="g54"/>
        <g transform="translate(379.1406,53.5254)" id="g58"/>
        <g transform="translate(416.7031,64.168)" id="g62"/>
        <g transform="translate(425.1934,57.5918)" id="g66"/>
        <g transform="translate(432.0391,59.959)" id="g70"/>
        <g transform="translate(442.8281,59.959)" id="g74"/>
        <g transform="translate(458.6641,59.1699)" id="g78"/>
        <g transform="translate(465.1641,62.9258)" id="g82"/>
        <g transform="translate(473.5234,55.0332)" id="g86"/>
        <g transform="translate(479.1602,53.8496)" id="g90"/>
        <g transform="translate(492.0586,57.0605)" id="g94"/>
        <g transform="translate(500.6445,59.1211)" id="g98"/>
        <g transform="translate(513.1406,58.9297)" id="g102"/>
        <g transform="translate(392.4355,59.748)" id="g106"/>
        <g transform="translate(392.5664,58.9199)" id="g110"/>
        <g transform="translate(393.4248,56.5137)" id="g114"/>
        <g transform="translate(393.3428,56.6738)" id="g118"/>
        <g transform="translate(392.8076,57.9922)" id="g122"/>
        <g transform="translate(402.4727,69.6855)" id="g126"/>
        <g transform="translate(393.4053,65.8281)" id="g130"/>
        <g transform="translate(411.6719,68.8027)" id="g134"/>
        <g transform="translate(409.0156,59.5996)" id="g138"/>
        <g transform="translate(397.8857,66.2305)" id="g142"/>
      </g>
    </g>
    <g id="g146">
      <g id="g148" style="clip-path: url(#clipPath152);">
        <g transform="translate(487.3271,448.7812)" id="g154"/>
        <g transform="translate(460.2012,463.9194)" id="g158">
          <path id="path-1" style="fill:#d17b28;fill-opacity:1;fill-rule:nonzero;stroke:none" d="M 237.817 -4.553 L 237.817 131.661 C 237.817 142.762 230.933 148.577 225.499 153.687 C 220.063 158.798 218.976 179.062 216.62 194.57 C 214.264 210.075 212.635 218.887 212.635 218.887 C 218.433 222.588 212.635 230.165 212.635 230.165 L 199.227 230.165 L 185.819 230.165 C 185.819 230.165 180.022 222.588 185.819 218.887 C 185.819 218.887 184.19 210.075 181.835 194.57 C 179.478 179.062 178.391 158.798 172.956 153.687 C 167.521 148.577 160.637 142.762 160.637 131.661 L 160.637 -4.553 C 160.637 -4.553 159.368 -18.298 175.673 -21.47 C 175.673 -21.47 187.27 -23.584 199.227 -23.584 C 211.185 -23.584 222.781 -21.47 222.781 -21.47 C 239.087 -18.298 237.817 -4.553 237.817 -4.553" bx:origin="0.5 0.5"/>
          <path id="path-2" style="fill:#b76328;fill-opacity:1;fill-rule:nonzero;stroke:none" d="M 211.254 218.975 C 211.254 218.975 207.422 217.918 199.228 217.918 C 191.034 217.918 187.201 218.975 187.201 218.975 L 186.409 213.61 C 189.449 216.253 209.009 216.034 212.048 213.39 Z" bx:origin="0.5 0.5"/>
          <path id="path-3" style="fill:#b76328;fill-opacity:1;fill-rule:nonzero;stroke:none" d="M 183.236 194.525 C 183.236 194.525 198.434 190.164 214.955 194.525 C 214.955 194.525 200.548 184.084 183.236 194.525" bx:origin="0.5 0.5"/>
          <path id="path-4" style="fill:#412823;fill-opacity:1;fill-rule:nonzero;stroke:none" d="M 237.161 -9.798 C 237.15 -9.826 233.833 -19.177 219.845 -17.99 C 205.836 -16.8 207.025 -16.14 199.227 -16.14 C 191.431 -16.14 192.62 -16.8 178.61 -17.99 C 164.622 -19.177 161.305 -9.826 161.294 -9.798 C 162.547 -14.038 166.045 -19.597 175.674 -21.47 C 175.674 -21.47 187.27 -23.584 199.227 -23.584 C 211.185 -23.584 222.781 -21.47 222.781 -21.47 C 232.41 -19.597 235.908 -14.038 237.161 -9.798" bx:origin="0.5 0.5"/>
          <path id="path-5" style="fill:#9f5525;fill-opacity:1;fill-rule:nonzero;stroke:none" d="M 185.819 218.887 C 185.819 218.887 184.19 210.075 181.835 194.57 C 179.478 179.062 178.391 158.798 172.956 153.687 C 167.521 148.577 160.637 142.762 160.637 131.661 L 160.637 -4.553 C 160.637 -4.553 159.368 -18.298 175.673 -21.47 C 175.673 -21.47 176.525 -21.625 177.995 -21.85 C 165.396 -15.534 165.747 -2.968 165.747 -2.968 L 165.747 128.137 C 165.747 140.119 169.272 145.406 174.911 149.282 C 180.549 153.158 181.783 161.969 181.783 161.969 L 188.479 218.975 C 184.602 225.76 190.242 230.165 190.242 230.165 L 185.819 230.165 C 185.819 230.165 180.022 222.588 185.819 218.887" bx:origin="0.5 0.5"/>
          <path id="path-6" style="fill:#ecb487;fill-opacity:1;fill-rule:nonzero;stroke:none" d="M 205.836 230.166 C 205.836 230.166 213.012 225.871 209.292 218.59 C 209.292 218.59 215.087 162.675 216.145 158.182 C 217.201 153.688 219.315 148.07 225.263 142.818 C 225.263 142.818 212.443 147.608 210.594 158.71 C 208.743 169.812 205.836 218.181 205.836 218.181 C 205.836 218.181 209.272 223.381 205.836 230.166" bx:origin="0.5 0.5"/>
          <path id="path-7" style="fill:#ecb487;fill-opacity:1;fill-rule:nonzero;stroke:none" d="M 227.112 141.529 L 227.112 -0.677 C 227.112 -0.677 227.402 -13.099 219.844 -17.99 L 205.836 -16.45 C 205.836 -16.45 212.91 -11.128 212.91 13.19 C 212.91 37.508 214.081 144.349 214.081 144.349 Z" bx:origin="0.5 0.5"/>
          <path id="path-8" style="fill:#b76328;fill-opacity:1;fill-rule:nonzero;stroke:none" d="M 227.112 141.529 C 227.112 141.529 222.021 147.145 199.227 147.166 L 199.227 147.167 L 199.161 147.167 L 199.095 147.167 L 199.095 147.166 C 176.301 147.145 171.21 141.529 171.21 141.529 C 186.9 145.658 211.423 145.658 227.112 141.529" bx:origin="0.5 0.5"/>
          <path id="path-9" style="fill:#552913;fill-opacity:1;fill-rule:nonzero;stroke:none" d="M 212.636 218.887 C 212.636 218.887 214.265 210.075 216.62 194.57 C 218.977 179.062 220.064 158.798 225.499 153.687 C 230.934 148.577 237.818 142.762 237.818 131.661 L 237.818 -4.553 C 237.818 -4.553 239.087 -18.298 222.782 -21.47 C 222.782 -21.47 221.931 -21.625 220.46 -21.85 C 233.059 -15.534 232.708 -2.968 232.708 -2.968 L 232.708 128.137 C 232.708 140.119 229.183 145.406 223.544 149.282 C 217.907 153.158 216.672 161.969 216.672 161.969 L 209.977 218.975 C 213.854 225.76 208.214 230.165 208.214 230.165 L 212.636 230.165 C 212.636 230.165 218.434 222.588 212.636 218.887" bx:origin="0.5 0.5"/>
          <path id="path-10" style="fill:#bfbebd;fill-opacity:1;fill-rule:nonzero;stroke:none" d="M 212.847 237.94 C 212.847 237.94 209.576 239.328 199.228 239.063 C 188.88 239.328 185.609 237.94 185.609 237.94 C 183.74 236.816 183.005 230.165 183.005 230.165 L 199.228 230.165 L 215.451 230.165 C 215.451 230.165 214.717 236.816 212.847 237.94" bx:origin="0.5 0.5"/>
          <path id="path-11" style="fill:#8e8c8c;fill-opacity:1;fill-rule:nonzero;stroke:none" d="M 212.303 232.125 C 212.232 231.002 207.749 231.53 207.749 231.53 L 199.175 231.349 L 190.601 231.53 C 190.601 231.53 186.119 231.002 186.049 232.125 C 185.978 233.249 186.991 237.147 188.681 237.94 C 190.144 238.627 194.985 238.62 198.429 238.606 L 198.428 238.601 C 198.663 238.601 198.916 238.602 199.175 238.603 C 199.436 238.602 199.689 238.601 199.922 238.601 L 199.921 238.606 C 203.366 238.62 208.206 238.627 209.67 237.94 C 211.361 237.147 212.374 233.249 212.303 232.125 M 212.847 237.94 C 212.847 237.94 209.575 239.328 199.228 239.063 C 188.88 239.328 185.609 237.94 185.609 237.94 C 183.74 236.817 183.005 230.166 183.005 230.166 L 199.228 230.166 L 215.45 230.166 C 215.45 230.166 214.717 236.817 212.847 237.94" bx:origin="0.5 0.5"/>
        </g>
        <g transform="translate(433.6377,687.4473)" id="g162"/>
        <g transform="translate(405.6201,662.9976)" id="g166"/>
        <g transform="translate(459.5449,458.6743)" id="g170"/>
        <g id="g174">
          <g id="g176"/>
          <g id="g188">
            <g style="opacity: 0.5; clip-path: url(#clipPath180);" id="g186">
              <g id="g184" transform="translate(408.2031,687.3594)"/>
            </g>
          </g>
        </g>
        <g id="g190">
          <g id="g192"/>
          <g id="g204">
            <g style="opacity: 0.5; clip-path: url(#clipPath196);" id="g202">
              <g id="g200" transform="translate(428.2197,698.6377)"/>
            </g>
          </g>
        </g>
        <g id="g206">
          <g id="g208"/>
          <g id="g220">
            <g style="opacity: 0.5; clip-path: url(#clipPath212);" id="g218">
              <g id="g216" transform="translate(449.4961,610.001)"/>
            </g>
          </g>
        </g>
        <g transform="translate(449.4961,610.001)" id="g222"/>
        <g id="g226">
          <g id="g228"/>
          <g id="g240">
            <g style="opacity: 0.300003; clip-path: url(#clipPath232);" id="g238">
              <g id="g236" transform="translate(435.0195,687.3594)"/>
            </g>
          </g>
        </g>
        <g transform="translate(435.2305,706.4126)" id="g242"/>
        <g transform="translate(434.6865,700.5972)" id="g246"/>
        <g transform="translate(624.7754,448.7812)" id="g250"/>
        <g transform="translate(597.6162,463.9194)" id="g254"/>
        <g transform="translate(571.0527,687.4473)" id="g258"/>
        <g transform="translate(543.0342,662.9976)" id="g262"/>
        <g transform="translate(596.959,458.6743)" id="g266"/>
        <g id="g270">
          <g id="g272"/>
          <g id="g284">
            <g style="opacity: 0.300003; clip-path: url(#clipPath276);" id="g282">
              <g id="g280" transform="translate(545.6182,687.3594)"/>
            </g>
          </g>
        </g>
        <g id="g286">
          <g id="g288"/>
          <g id="g300">
            <g style="opacity: 0.5; clip-path: url(#clipPath292);" id="g298">
              <g id="g296" transform="translate(565.6338,698.6377)"/>
            </g>
          </g>
        </g>
        <g id="g302">
          <g id="g304"/>
          <g id="g316">
            <g style="opacity: 0.5; clip-path: url(#clipPath308);" id="g314">
              <g id="g312" transform="translate(586.9111,610.001)"/>
            </g>
          </g>
        </g>
        <g transform="translate(586.9111,610.001)" id="g318"/>
        <g id="g322">
          <g id="g324"/>
          <g id="g336">
            <g style="opacity: 0.699997; clip-path: url(#clipPath328);" id="g334">
              <g id="g332" transform="translate(572.4346,687.3594)"/>
            </g>
          </g>
        </g>
        <g transform="translate(572.6445,706.4126)" id="g338"/>
        <g transform="translate(572.1006,700.5972)" id="g342"/>
        <g transform="translate(558.043,579.3022)" id="g346"/>
        <g transform="translate(587.2197,535.1147)" id="g350"/>
        <g transform="translate(764.5645,448.7812)" id="g354"/>
        <g transform="translate(747.958,459.9937)" id="g358"/>
        <g transform="translate(742.0898,462.9727)" id="g362"/>
        <g transform="translate(743.6562,463.1592)" id="g366"/>
        <g id="g370">
          <g id="g372"/>
          <g id="g384">
            <g style="opacity: 0.300003; clip-path: url(#clipPath376);" id="g382">
              <g id="g380" transform="translate(663.832,459.9297)"/>
            </g>
          </g>
        </g>
        <g id="g386">
          <g id="g388"/>
          <g id="g400">
            <g style="opacity: 0.300003; clip-path: url(#clipPath392);" id="g398">
              <g id="g396" transform="translate(733.9043,459.9297)"/>
            </g>
          </g>
        </g>
        <g transform="translate(742.1357,462.3096)" id="g402"/>
        <g transform="translate(658.4707,583.2979)" id="g406"/>
        <g transform="translate(733.1465,523.0107)" id="g410"/>
        <g id="g414">
          <g id="g416"/>
          <g id="g428">
            <g style="opacity: 0.5; clip-path: url(#clipPath420);" id="g426">
              <g id="g424" transform="translate(719.0625,601.0088)"/>
            </g>
          </g>
        </g>
        <g transform="translate(734.1572,602.5015)" id="g430"/>
        <g transform="translate(699.0273,153.2686)" id="g434"/>
        <g transform="translate(551.834,388.8311)" id="g440"/>
        <g transform="translate(427.7168,190.7109)" id="g444"/>
        <g transform="translate(676.6963,190.7109)" id="g448"/>
        <g transform="translate(411.3164,353.0498)" id="g452"/>
        <g transform="translate(411.3164,217.4043)" id="g458"/>
        <g transform="translate(718.4766,288.3213)" id="g464"/>
        <g transform="translate(736.709,283.5361)" id="g468"/>
        <g transform="translate(738.376,278.3271)" id="g474"/>
        <g transform="translate(150.4805,448.7812)" id="g478"/>
        <g transform="translate(56.5059,607.7925)" id="g482"/>
        <g transform="translate(129.811,607.7925)" id="g486"/>
        <g transform="translate(64.0371,553.063)" id="g490"/>
        <g id="g494">
          <g id="g496"/>
          <g id="g508">
            <g style="opacity: 0.5; clip-path: url(#clipPath500);" id="g506">
              <g id="g504" transform="translate(92.9355,599.7603)"/>
            </g>
          </g>
        </g>
        <g transform="translate(114.5361,453.1201)" id="g510"/>
        <g transform="translate(174.7021,161.5498)" id="g514"/>
        <g transform="translate(131.1821,181.6211)" id="g518"/>
        <g transform="translate(131.1821,181.6211)" id="g522"/>
        <g id="g526">
          <g id="g528"/>
          <g id="g540">
            <g style="opacity: 0.5; clip-path: url(#clipPath532);" id="g538">
              <g id="g536" transform="translate(117.2598,364.1514)"/>
            </g>
          </g>
        </g>
        <g transform="translate(138.6533,175.7549)" id="g542"/>
        <g transform="translate(326.542,448.7812)" id="g546"/>
        <g transform="translate(210.0459,579.2793)" id="g550"/>
        <g transform="translate(295.7793,474.23)" id="g554"/>
        <g transform="translate(298.689,564.4629)" id="g558"/>
        <g transform="translate(257.6172,446.7061)" id="g562"/>
        <g transform="translate(294.8794,466.3496)" id="g566"/>
        <g transform="translate(229.9321,487.063)" id="g570"/>
        <g transform="translate(251.7676,487.063)" id="g574"/>
        <g transform="translate(273.6035,487.063)" id="g578"/>
        <g transform="translate(295.438,487.063)" id="g582"/>
        <g id="g586">
          <g id="g588"/>
          <g id="g600">
            <g style="opacity: 0.5; clip-path: url(#clipPath592);" id="g598">
              <g id="g596" transform="translate(259.6841,572.3574)"/>
            </g>
          </g>
        </g>
        <g transform="translate(317.3477,163.4102)" id="g602"/>
        <g transform="translate(266.9819,182.1289)" id="g606"/>
        <g transform="translate(235.1084,160.4961)" id="g610"/>
        <g transform="translate(277.6743,232.9131)" id="g614"/>
        <g id="g618">
          <g id="g620"/>
          <g id="g632">
            <g style="opacity: 0.5; clip-path: url(#clipPath624);" id="g630">
              <g id="g628" transform="translate(257.9248,330.5303)"/>
            </g>
          </g>
        </g>
      </g>
    </g>
  </g>
</svg>